<?xml version="1.0" encoding="UTF-8"?>
<svg width="183px" height="250px" viewBox="0 0 183 250" version="1.1" xmlns="http://www.w3.org/2000/svg" xmlns:xlink="http://www.w3.org/1999/xlink">
    <!-- Generator: Sketch 46.2 (44496) - http://www.bohemiancoding.com/sketch -->
    <title>Group</title>
    <desc>Created with Sketch.</desc>
    <defs></defs>
    <g id="Page-1" stroke="none" stroke-width="1" fill="none" fill-rule="evenodd">
        <g id="PC-404" transform="translate(-545.000000, -173.000000)">
            <g id="Group-2" transform="translate(473.000000, 173.000000)">
                <g id="Group" transform="translate(70.000000, 0.000000)">
                    <text id="４０４" font-family=".HiraKakuInterface-W3, .Hiragino Kaku Gothic Interface" font-size="60" font-weight="300" letter-spacing="5" fill="#999999">
                        <tspan x="0" y="215">４０４</tspan>
                    </text>
                    <path d="M74,116 L74,90.2335064 L74,13 L52,0 L52,12.9077664 L52,25.7599323 L52,51.5444339 L52,77.3289497 L52,103.046685 L52,129 L74,116.000007 Z M118.502523,115.998557 L96,103 L96.002518,77.3289497 L96.002518,51.5444339 L96.002518,25.7599323 L96.002518,12.9077664 L96.002518,0 L118.502833,12.9077664 L118.502833,90.2322567 L141,103 L141,129 L118.5,116.000014 L118.502523,115.998557 Z M95.999986,25.9999952 L96,25.9999952 L96,52 L74.000014,39.0000048 L74,39.0000048 L74,13 L95.999986,25.9999952 Z M74,64 L96,76.9999952 L96,103 L74,90.0000048 L74,64 Z" id="Combined-Shape" fill="#999999"></path>
                    <text id="お探しのページは見つかりません。" font-family="YuGo-Medium, YuGothic" font-size="12" font-weight="400" line-spacing="12" fill="#333333">
                        <tspan x="1" y="247">お探しのページは見つかりません。</tspan>
                    </text>
                </g>
            </g>
        </g>
    </g>
</svg>