<?xml version="1.0" encoding="UTF-8"?>
<svg width="16px" height="14px" viewBox="0 0 16 14" version="1.1" xmlns="http://www.w3.org/2000/svg" xmlns:xlink="http://www.w3.org/1999/xlink">
    <!-- Generator: Sketch 46.2 (44496) - http://www.bohemiancoding.com/sketch -->
    <title>Mail Icon</title>
    <desc>Created with Sketch.</desc>
    <defs></defs>
    <g id="Symbols" stroke="none" stroke-width="1" fill="none" fill-rule="evenodd">
        <g id="Lv2/Button/PC/Mail_form" transform="translate(-20.000000, -16.000000)" fill="#BBBBBB">
            <g id="Lv2/Button/Mail_form_PC">
                <path d="M33.993,30.0000123 L22.007,30.0000123 C20.9017456,29.9989231 20.0049508,29.1052561 20,28.0000123 L20,18.0000123 C19.9999967,17.4683642 20.2116711,16.9585927 20.5882591,16.5833181 C20.9648472,16.2080434 21.4753552,15.9981515 22.007,16.0000123 L33.993,16.0000123 C35.0982544,16.0011015 35.9950492,16.8947684 36,18.0000123 L36,28.0000123 C36.0000033,28.5316603 35.7883289,29.0414318 35.4117409,29.4167065 C35.0351528,29.7919811 34.5246448,30.001873 33.993,30.0000123 L33.993,30.0000123 L33.993,30.0000123 Z M34,28.0000123 L34,19.4710123 L29.055,24.5610123 C28.7736274,24.8428309 28.3917365,25.0011926 27.9935,25.0011926 C27.5952635,25.0011926 27.2133726,24.8428309 26.932,24.5610123 L22,19.4830123 L22,28.0000123 L34,28.0000123 L34,28.0000123 L34,28.0000123 Z M32.629,18.0000123 L23.359,18.0000123 L27.994,22.7790123 L32.629,18.0000123 L32.629,18.0000123 Z" id="Mail-Icon"></path>
            </g>
        </g>
    </g>
</svg>