<?xml version="1.0" encoding="UTF-8"?>
<svg width="12px" height="13px" viewBox="0 0 12 13" version="1.1" xmlns="http://www.w3.org/2000/svg" xmlns:xlink="http://www.w3.org/1999/xlink">
    <!-- Generator: Sketch 46.2 (44496) - http://www.bohemiancoding.com/sketch -->
    <title>Pencil Icon</title>
    <desc>Created with Sketch.</desc>
    <defs></defs>
    <g id="Page-1" stroke="none" stroke-width="1" fill="none" fill-rule="evenodd">
        <g id="PC-マイページトップ" transform="translate(-1049.000000, -123.000000)" fill="#649E00">
            <g id="Collaborative" transform="translate(141.000000, 110.000000)">
                <g id="Group" transform="translate(324.000000, 0.000000)">
                    <g id="Button-+-Icon-Right" transform="translate(574.000000, 5.000000)">
                        <path d="M21.2611655,12.8351685 L14.767433,19.3273068 C14.3961341,19.6680126 13.9519824,19.9194105 13.4688357,20.0623362 L11.4877476,20.5578282 L11.4877476,20.5578282 L10.6001365,20.781695 C10.4387842,20.853017 10.25021,20.8178388 10.1253939,20.6931325 C10.0005779,20.5684263 9.96516574,20.379815 10.0362425,20.2182968 L10.26001,19.3310379 L10.26001,19.3310379 L10.755282,17.3498164 C10.8977288,16.866279 11.1490656,16.4218407 11.4899852,16.0506425 L17.9837177,9.55850421 C18.5612105,8.93694206 19.4319112,8.68054547 20.2538978,8.8900007 C21.0758844,9.09945593 21.7178981,9.74131612 21.9278217,10.5635245 C22.1377454,11.3857328 21.8820573,12.2569949 21.2611655,12.8351685 L21.2611655,12.8351685 L21.2611655,12.8351685 Z M12.5431842,17.1035629 C12.3930164,17.2830425 12.2767521,17.4883655 12.2000741,17.7094958 L11.8972421,18.9198691 L13.1070783,18.6169027 C13.3278248,18.5394046 13.5331254,18.4234455 13.7134882,18.2743864 L18.8303047,13.1575367 L18.8041985,13.1314189 L17.6853611,12.0120848 L17.658509,11.9852207 L12.5431842,17.1035629 L12.5431842,17.1035629 Z M20.2072207,10.6114246 C19.8833622,10.2890708 19.3600293,10.2890708 19.0361708,10.6114246 L18.7139456,10.934539 L18.7400518,10.9606568 L19.8588893,12.079991 L19.8849955,12.1061088 L20.2079666,11.7837406 C20.5314583,11.4592736 20.5311245,10.9339874 20.2072207,10.6099321 L20.2072207,10.6114246 L20.2072207,10.6114246 Z" id="Pencil-Icon"></path>
                    </g>
                </g>
            </g>
        </g>
    </g>
</svg>