<?xml version="1.0" encoding="UTF-8"?>
<svg width="14px" height="16px" viewBox="0 0 14 16" version="1.1" xmlns="http://www.w3.org/2000/svg" xmlns:xlink="http://www.w3.org/1999/xlink">
    <!-- Generator: Sketch 46.2 (44496) - http://www.bohemiancoding.com/sketch -->
    <title>Lock Icon</title>
    <desc>Created with Sketch.</desc>
    <defs></defs>
    <g id="Symbols" stroke="none" stroke-width="1" fill="none" fill-rule="evenodd">
        <g id="Lv2/Button/PC/Pass_form_PC" transform="translate(-21.000000, -14.000000)" fill="#BBBBBB">
            <g id="Lv2/Button/Pass_form_PC">
                <path d="M33,30 L23,30 C21.8954305,30 21,29.1045695 21,28 L21,20 C21,18.8954305 21.8954305,18 23,18 L24,18 C24,15.790861 25.790861,14 28,14 C30.209139,14 32,15.790861 32,18 L33,18 C34.1045695,18 35,18.8954305 35,20 L35,28 C35,29.1045695 34.1045695,30 33,30 L33,30 L33,30 Z M28,16 C26.8954305,16 26,16.8954305 26,18 L30,18 C30,16.8954305 29.1045695,16 28,16 L28,16 L28,16 Z M33,20 L23,20 L23,28 L33,28 L33,20 L33,20 L33,20 Z M28,22 C29.1045695,22 30,22.8954305 30,24 C30,25.1045695 29.1045695,26 28,26 C26.8954305,26 26,25.1045695 26,24 C26,22.8954305 26.8954305,22 28,22 L28,22 L28,22 Z" id="Lock-Icon"></path>
            </g>
        </g>
    </g>
</svg>