<?xml version="1.0" encoding="UTF-8"?>
<svg width="40px" height="40px" viewBox="0 0 40 40" version="1.1" xmlns="http://www.w3.org/2000/svg" xmlns:xlink="http://www.w3.org/1999/xlink">
    <!-- Generator: Sketch 46.2 (44496) - http://www.bohemiancoding.com/sketch -->
    <title>Group 9</title>
    <desc>Created with Sketch.</desc>
    <defs></defs>
    <g id="Page-1" stroke="none" stroke-width="1" fill="none" fill-rule="evenodd">
        <g id="PC-求人詳細" transform="translate(-180.000000, -146.000000)">
            <g id="Collaborative" transform="translate(161.000000, 146.000000)">
                <g id="Group-9" transform="translate(19.000000, 0.000000)">
                    <rect id="header-copy-9" fill="#649E00" x="0" y="0" width="40" height="40" rx="20"></rect>
                    <path d="M20.1040001,23.24 C20.6240027,23.24 21.1106645,23.106668 21.5640001,22.84 C22.0173357,22.573332 22.3773321,22.2166689 22.6440001,21.77 C22.9106681,21.3233311 23.0440001,20.8400026 23.0440001,20.32 C23.0440001,19.7999974 22.9106681,19.3133356 22.6440001,18.86 C22.3773321,18.4066644 22.0173357,18.046668 21.5640001,17.78 C21.1106645,17.513332 20.6240027,17.38 20.1040001,17.38 C19.5839975,17.38 19.100669,17.513332 18.6540001,17.78 C18.2073312,18.046668 17.8506681,18.4066644 17.5840001,18.86 C17.3173321,19.3133356 17.1840001,19.7999974 17.1840001,20.32 C17.1840001,20.8400026 17.3173321,21.3233311 17.5840001,21.77 C17.8506681,22.2166689 18.2073312,22.573332 18.6540001,22.84 C19.100669,23.106668 19.5839975,23.24 20.1040001,23.24 Z M26.3240001,21.14 L28.0640001,22.5 C28.1440005,22.566667 28.1906667,22.6533328 28.2040001,22.76 C28.2173335,22.8666672 28.1973337,22.9666662 28.1440001,23.06 L26.4640001,25.94 C26.4106665,26.0333338 26.3406672,26.0933332 26.2540001,26.12 C26.167333,26.1466668 26.0706673,26.1400002 25.9640001,26.1 L23.9040001,25.28 C23.3706641,25.6666686 22.8973355,25.9399992 22.4840001,26.1 L22.1840001,28.28 C22.1573333,28.3866672 22.1073338,28.473333 22.0340001,28.54 C21.9606664,28.606667 21.8773339,28.64 21.7840001,28.64 L18.4240001,28.64 C18.3306663,28.64 18.2473338,28.606667 18.1740001,28.54 C18.1006664,28.473333 18.0573335,28.3866672 18.0440001,28.28 L17.7240001,26.1 C17.1639973,25.8733322 16.6973353,25.6000016 16.3240001,25.28 L14.2440001,26.1 C14.0306657,26.1933338 13.8640007,26.140001 13.7440001,25.94 L12.0640001,23.06 C12.0106665,22.9666662 11.9906667,22.8666672 12.0040001,22.76 C12.0173335,22.6533328 12.0639997,22.566667 12.1440001,22.5 L13.9040001,21.14 C13.8773333,20.9533324 13.8640001,20.6800018 13.8640001,20.32 C13.8640001,19.9599982 13.8773333,19.6866676 13.9040001,19.5 L12.1440001,18.14 C12.0639997,18.073333 12.0173335,17.9866672 12.0040001,17.88 C11.9906667,17.7733328 12.0106665,17.6733338 12.0640001,17.58 L13.7440001,14.7 C13.8640007,14.499999 14.0306657,14.4466662 14.2440001,14.54 L16.3240001,15.36 C16.8040025,14.9999982 17.2706645,14.7266676 17.7240001,14.54 L18.0440001,12.36 C18.0573335,12.2533328 18.1006664,12.166667 18.1740001,12.1 C18.2473338,12.033333 18.3306663,12 18.4240001,12 L21.7840001,12 C21.8773339,12 21.9606664,12.033333 22.0340001,12.1 C22.1073338,12.166667 22.1573333,12.2533328 22.1840001,12.36 L22.4840001,14.54 C23.0040027,14.740001 23.4773313,15.0133316 23.9040001,15.36 L25.9640001,14.54 C26.0706673,14.4999998 26.167333,14.4933332 26.2540001,14.52 C26.3406672,14.5466668 26.4106665,14.6066662 26.4640001,14.7 L28.1440001,17.58 C28.1973337,17.6733338 28.2173335,17.7733328 28.2040001,17.88 C28.1906667,17.9866672 28.1440005,18.073333 28.0640001,18.14 L26.3240001,19.5 C26.3506669,19.6866676 26.3640001,19.9599982 26.3640001,20.32 C26.3640001,20.6800018 26.3506669,20.9533324 26.3240001,21.14 Z" id="settings---material" fill="#FFFFFF"></path>
                </g>
            </g>
        </g>
    </g>
</svg>