<svg xmlns="http://www.w3.org/2000/svg" viewBox="5376 3403 85.381 80">
  <defs>
    <style>
      .cls-1 {
        fill: #676767;
      }
    </style>
  </defs>
  <g id="グループ化_265" data-name="グループ化 265" transform="translate(5375.9 3403.029)">
    <path id="パス_526" data-name="パス 526" class="cls-1" d="M85.349,30.54a.8.8,0,0,0-.132-.529,2.046,2.046,0,0,0-1.057-1.454l-11.9-8.194V11.508a3.021,3.021,0,0,0-2.643-3.04H56.007L44.376.538a2.584,2.584,0,0,0-3.04-.132L29.574,8.468H15.828a3.255,3.255,0,0,0-2.908,3.04V20.1L1.157,28.293A2.823,2.823,0,0,0,.1,30.54L.232,77.328a2.4,2.4,0,0,0,.793,1.85,2.609,2.609,0,0,0,1.85.793l79.962-.132A2.651,2.651,0,0,0,85.481,77.2Zm-78.112.132,5.683-3.965v7.8Zm31.72-22.2L42.79,5.825l3.833,2.643ZM72.4,34.373V26.839l5.419,3.833Zm7.666,37.536L55.347,52.745,80.062,35.563ZM41.072,44.286l-6.741,5.022-16.257-11.1V13.755h48.9V38.206L50.853,49.44l-6.476-5.022A2.59,2.59,0,0,0,41.072,44.286Zm33.7,30.4h-64.1L42.79,49.837ZM30.1,52.877,5.519,71.909V35.695Z" transform="translate(0 0)"/>
    <path id="パス_527" data-name="パス 527" class="cls-1" d="M22.343,21.687H50.627a2.643,2.643,0,1,0,0-5.287H22.343A2.651,2.651,0,0,0,19.7,19.043,2.57,2.57,0,0,0,22.343,21.687Z" transform="translate(6.305 5.285)"/>
    <path id="パス_528" data-name="パス 528" class="cls-1" d="M53.271,27.043A2.651,2.651,0,0,0,50.627,24.4H22.343a2.643,2.643,0,0,0,0,5.287H50.627A2.651,2.651,0,0,0,53.271,27.043Z" transform="translate(6.305 7.858)"/>
  </g>
</svg>
