<svg xmlns="http://www.w3.org/2000/svg" viewBox="5639 3403 81.733 80">
  <defs>
    <style>
      .cls-1 {
        fill: #676767;
      }
    </style>
  </defs>
  <g id="グループ化_266" data-name="グループ化 266" transform="translate(5639 3403)">
    <path id="パス_529" data-name="パス 529" class="cls-1" d="M73.733,0H8A8.024,8.024,0,0,0,0,8V61.333a8.024,8.024,0,0,0,8,8H26.667v5.333h-8a2.667,2.667,0,1,0,0,5.333h44.4a2.667,2.667,0,0,0,0-5.333h-8V69.333H73.733a8.024,8.024,0,0,0,8-8V8A8.024,8.024,0,0,0,73.733,0ZM8,5.333H73.733A2.675,2.675,0,0,1,76.4,8V53.333H5.333V8A2.675,2.675,0,0,1,8,5.333ZM49.733,74.667H32V69.333H49.733ZM73.733,64H8a2.675,2.675,0,0,1-2.667-2.667V58.667H76.4v2.667A2.675,2.675,0,0,1,73.733,64Z"/>
    <path id="パス_530" data-name="パス 530" class="cls-1" d="M24,41.367a2.675,2.675,0,0,0,2.667,2.667H60.4a2.667,2.667,0,1,0,0-5.333H57.733a14.4,14.4,0,0,0-7.2-12.4A8.478,8.478,0,0,0,52.4,20.833,8.934,8.934,0,0,0,43.467,11.9a9.036,9.036,0,0,0-6.933,14.533,14.022,14.022,0,0,0-7.2,12.267H26.667A2.675,2.675,0,0,0,24,41.367Zm16-20.4a3.6,3.6,0,1,1,3.6,3.6A3.672,3.672,0,0,1,40,20.967Zm3.6,8.8A8.934,8.934,0,0,1,52.533,38.7H34.667A8.934,8.934,0,0,1,43.6,29.767Z" transform="translate(8 3.967)"/>
    <path id="パス_531" data-name="パス 531" class="cls-1" d="M10.667,21.333H28.4A2.667,2.667,0,0,0,28.4,16H10.667a2.667,2.667,0,1,0,0,5.333Z" transform="translate(2.667 5.333)"/>
    <path id="パス_532" data-name="パス 532" class="cls-1" d="M10.667,29.333H28.4A2.667,2.667,0,0,0,28.4,24H10.667a2.667,2.667,0,1,0,0,5.333Z" transform="translate(2.667 8)"/>
  </g>
</svg>
