<svg xmlns="http://www.w3.org/2000/svg" viewBox="5880 3403 121.356 80">
  <defs>
    <style>
      .cls-1 {
        fill: #676767;
      }
    </style>
  </defs>
  <g id="グループ化_267" data-name="グループ化 267" transform="translate(5880.025 3403.009)">
    <path id="パス_533" data-name="パス 533" class="cls-1" d="M33.015,11.449a12.938,12.938,0,0,0,9.716-.532l1.464-.8a7.146,7.146,0,0,1,5.723-.4L78,19.434a5.231,5.231,0,0,1-1.73,2.795c-1.331.932-3.46.532-5.057,0L58.569,17.97a2.569,2.569,0,0,0-2,.133,2.667,2.667,0,0,0-1.331,1.6c-.133.665-2,6.655-7.187,9.449-3.46,1.863-7.719,1.863-12.777.133a2.59,2.59,0,0,0-3.194,3.593,2.419,2.419,0,0,0,1.464,1.331c6.388,2.129,12.111,2,16.9-.532,5.057-2.662,7.586-7.32,8.784-9.982l10.248,3.46c3.86,1.331,7.187,1.065,9.716-.665,3.46-2.4,4.126-6.788,4.259-8.651a2.6,2.6,0,0,0-1.73-2.529L51.648,4.927a13.246,13.246,0,0,0-9.583.532l-1.464.8a7.131,7.131,0,0,1-5.723.266L32.35,5.593a.691.691,0,0,1-.532-.266L16.379.136a2.611,2.611,0,0,0-2,.133,2.419,2.419,0,0,0-1.331,1.464L.141,39.531a2.621,2.621,0,0,0,1.6,3.327l15.306,5.324a1.973,1.973,0,0,0,.932.133,3.886,3.886,0,0,0,1.2-.266A2.419,2.419,0,0,0,20.5,46.585L32.616,11.316Zm-5.324-2L16.379,42.326,5.864,38.733,17.177,5.859Z" transform="translate(0 0)"/>
    <path id="パス_534" data-name="パス 534" class="cls-1" d="M115.194,37.469l-17.7-35.8A2.419,2.419,0,0,0,96.029.336a2.611,2.611,0,0,0-2,.133L79.392,7.656a2.519,2.519,0,0,0-1.2,3.46l16.77,34.071-5.057,4.658A69.269,69.269,0,0,1,73.936,60.76L45.72,74.468a2.226,2.226,0,0,1-1.6.133,1.889,1.889,0,0,1-1.2-1.065,2.226,2.226,0,0,1-.133-1.6,1.889,1.889,0,0,1,1.065-1.2l15.7-7.719A2.589,2.589,0,1,0,57.3,58.364L34.274,69.677a2.083,2.083,0,1,1-1.863-3.727L54.9,54.9a2.589,2.589,0,0,0-2.263-4.658L27.354,62.49a2.107,2.107,0,0,1-2.795-.932,2.226,2.226,0,0,1-.133-1.6,1.889,1.889,0,0,1,1.065-1.2L48.382,47.45a2.589,2.589,0,1,0-2.263-4.658l-20.1,9.849a2.226,2.226,0,0,1-1.6.133,1.889,1.889,0,0,1-1.2-1.065,2.226,2.226,0,0,1-.133-1.6,1.889,1.889,0,0,1,1.065-1.2l10.78-5.191a2.589,2.589,0,1,0-2.263-4.658L22.03,44.256A7.811,7.811,0,0,0,18.3,48.515a6.833,6.833,0,0,0,.4,5.59,5.7,5.7,0,0,0,2,2.4,7.341,7.341,0,0,0,5.59,11.446,7.9,7.9,0,0,0,.665,3.061,7.2,7.2,0,0,0,6.521,4.126,6.323,6.323,0,0,0,3.194-.8l1.065-.532a8.792,8.792,0,0,0,.665,2,7.811,7.811,0,0,0,4.259,3.727,7.536,7.536,0,0,0,2.4.4,7.087,7.087,0,0,0,3.194-.8L76.331,65.418A75.375,75.375,0,0,0,93.5,53.706l6.255-5.723,14.374-7.054A2.912,2.912,0,0,0,115.194,37.469Zm-5.856,0-9.982,4.924L84.051,11.116l9.982-4.924Z" transform="translate(5.928 0.066)"/>
  </g>
</svg>
