<svg xmlns="http://www.w3.org/2000/svg" viewBox="5119 3403 78.118 80">
  <defs>
    <style>
      .cls-1 {
        fill: #676767;
      }
    </style>
  </defs>
  <g id="グループ化_262" data-name="グループ化 262" transform="translate(5119 3403)">
    <g id="グループ化_261" data-name="グループ化 261">
      <path id="パス_516" data-name="パス 516" class="cls-1" d="M55.8,71.664a3.329,3.329,0,0,1-3.361,3.361H8.471a3.329,3.329,0,0,1-3.361-3.361V8.471A3.489,3.489,0,0,1,8.471,5.244H38.723V16.4a5.932,5.932,0,0,0,4.571,5.782l9.815-9.815L40.739,0H8.471A8.435,8.435,0,0,0,0,8.471V71.529A8.435,8.435,0,0,0,8.471,80H52.437a8.435,8.435,0,0,0,8.471-8.471V35.9l-5.244,5.244Zm0,0"/>
      <path id="パス_517" data-name="パス 517" class="cls-1" d="M57.614,8.838A2.022,2.022,0,0,0,56.135,8.3a2.819,2.819,0,0,0-1.479.538L15.126,48.5a2.813,2.813,0,0,0-.538.807L11.227,60.737a1.935,1.935,0,0,0,.538,2.017,2.022,2.022,0,0,0,1.479.538.808.808,0,0,0,.538-.134L25.21,59.8c.269-.134.672-.269.807-.538L65.681,19.594a1.95,1.95,0,0,0,0-2.824Zm-1.345,4.3,2.555,2.555L23.731,50.787l-2.555-2.555Zm-36.437,44.1-2.555-2.555,1.076-3.5L23.462,56.3Zm0,0" transform="translate(3.832 2.86)"/>
      <path id="パス_518" data-name="パス 518" class="cls-1" d="M59.587,4.586A7.615,7.615,0,0,0,54.074,2.3a7.845,7.845,0,0,0-5.513,2.286l-.807.807a1.95,1.95,0,0,0,0,2.824l8.067,8.067a2.3,2.3,0,0,0,2.958,0l.807-.807a7.615,7.615,0,0,0,2.286-5.513,8.417,8.417,0,0,0-2.286-5.378ZM57.3,11.981,52.192,6.871a3.876,3.876,0,0,1,4.571.538,3.673,3.673,0,0,1,1.076,2.555,4.454,4.454,0,0,1-.538,2.017Zm0,0" transform="translate(16.245 0.792)"/>
    </g>
    <path id="パス_519" data-name="パス 519" class="cls-1" d="M10.489,17.478H28.371a2.689,2.689,0,1,0,0-5.378H10.489a2.689,2.689,0,1,0,0,5.378Z" transform="translate(2.687 4.169)"/>
    <path id="パス_520" data-name="パス 520" class="cls-1" d="M10.489,25.478H28.371a2.689,2.689,0,1,0,0-5.378H10.489a2.689,2.689,0,1,0,0,5.378Z" transform="translate(2.687 6.925)"/>
  </g>
</svg>
