<svg xmlns="http://www.w3.org/2000/svg" xmlns:xlink="http://www.w3.org/1999/xlink" viewBox="5352 1374 142 142">
  <defs>
    <style>
      .cls-1 {
        fill: #f7f7f7;
      }

      .cls-2 {
        clip-path: url(#clip-path);
      }

      .cls-3 {
        fill: #f8cfbd;
      }

      .cls-4 {
        fill: #8a9fc7;
      }

      .cls-5 {
        fill: #595757;
      }

      .cls-6 {
        fill: #666;
      }

      .cls-7 {
        fill: #60729c;
      }

      .cls-8 {
        fill: #b9cae7;
      }

      .cls-9 {
        fill: #fff;
      }

      .cls-10 {
        fill: #353142;
      }

      .cls-11 {
        fill: #231815;
      }
    </style>
    <clipPath id="clip-path">
      <circle id="楕円形_17" data-name="楕円形 17" class="cls-1" cx="71" cy="71" r="71" transform="translate(759 986)"/>
    </clipPath>
  </defs>
  <g id="マスクグループ_1" data-name="マスクグループ 1" class="cls-2" transform="translate(4593 388)">
    <circle id="楕円形_19" data-name="楕円形 19" class="cls-1" cx="71" cy="71" r="71" transform="translate(759 986)"/>
    <g id="グループ化_117" data-name="グループ化 117" transform="translate(785 1010.91)">
      <path id="パス_124" data-name="パス 124" class="cls-3" d="M39.9,72.8s2.4,11.6-.4,17.5c0,0,4.2,10.8,16.7.8,0,0-3.8-10.4-2.5-19.9Z"/>
      <g id="グループ化_117-2" data-name="グループ化 117">
        <path id="パス_125" data-name="パス 125" class="cls-4" d="M42.7,136c.3-3.9,1.1-15.6,1.2-19.2s-.2-22-.2-22a5.731,5.731,0,0,0-1.4-1.5c-1.1-.5-1.9-4-1.8-4.7.1-.4-3.1.6-3.1.6a3.126,3.126,0,0,0-2.2,3c.1,2.3-1.2,29.9-1.2,34,0,1.9-.7,7.8-1.4,13.6h10A20.915,20.915,0,0,1,42.7,136Z"/>
      </g>
      <g id="グループ化_118" data-name="グループ化 118">
        <path id="パス_126" data-name="パス 126" class="cls-4" d="M52.8,116c1.2-8,5.9-30,5.9-30l-8.2,1.3a9.62,9.62,0,0,0-2.2,1.9c-.5.9.2,1.7-.3,2.5-.5.7-3.8,1.5-4.6,3s-2.6,13-2.7,20.4-.6,19.8-.6,23.8v.8H52C52,130.7,52.2,120.2,52.8,116Z"/>
      </g>
      <path id="パス_127" data-name="パス 127" class="cls-3" d="M72.1,38.6s5-3.5,8.3-.3,1.5,10.1-1.5,11.1S71.4,48,71.4,48Z"/>
      <path id="パス_128" data-name="パス 128" class="cls-3" d="M19.8,21.3c-.9,8.2-3.5,16.5-2.2,24.6,1.3,7.9,3.3,15.6,12.8,25.4,5.7,5.8,11.8,9.5,16.9,8C57.9,76,69.2,68,72.5,54.8c1.6-6.6,0-13.3-.9-19.9,0,0-2.3-16.8-17.3-20.1S24.2,13.5,19.8,21.3Z"/>
      <path id="パス_129" data-name="パス 129" class="cls-5" d="M72,44s14.4-21.7-4.5-31.1c.5.3-.3-4-.3-4.1-1.3-3.4-4.5-5.4-7.7-6.7C48.5-2,37.8.8,27.4,4.9a82.067,82.067,0,0,1-9.7,2.7C15.3,8.1,1.4,11.6,0,10c0,0,8.7,10.2,18.4,6.4A36.282,36.282,0,0,1,1.5,26.5S16.2,43.1,40,22.4L25.4,36.7s19.8,1.6,31.8-14.2C57.3,22.5,62,34.5,72,44Z"/>
      <path id="パス_130" data-name="パス 130" class="cls-6" d="M15.5,27.3H14.3c-.4,0-.6-.3-.6-.7s.3-.6.7-.6c5.5.3,7.8-1.5,13.9-6.1,1.3-1,2.7-2,4.3-3.2,7.2-5.2,17.7-5.5,22.9-5.2-4.9-2.1-15.9-5.1-30.4,2.8a.671.671,0,0,1-.6-1.2C44.9,2,58.9,11.7,59,11.8a.778.778,0,0,1,.2.8.67.67,0,0,1-.7.4c-.2,0-15.9-2.1-25.1,4.7-1.6,1.2-3,2.3-4.3,3.2C23.3,25.3,20.7,27.3,15.5,27.3Z"/>
      <path id="パス_131" data-name="パス 131" class="cls-6" d="M71.6,37.5a.576.576,0,0,1-.6-.6c-.1-11.7-2.9-16.4-5.2-18.2a5.161,5.161,0,0,0-4-1.2.667.667,0,0,1-.3-1.3,6.169,6.169,0,0,1,5,1.4q5.55,4.35,5.7,19.2a.669.669,0,0,1-.6.7Z"/>
      <path id="パス_132" data-name="パス 132" class="cls-7" d="M50.4,87.2a3.087,3.087,0,0,1,.1,2c-.3,1.2-.9,1.7-.6,2.8.3,1,3.1-1.4,3-3.2C52.7,87,50.4,87.2,50.4,87.2Z"/>
      <path id="パス_133" data-name="パス 133" class="cls-8" d="M53.9,81.8a14.115,14.115,0,0,1-3.5,5.4s3-.1,2.5,1.6c-.5,1.6-3.1,2.8-3.2,4.4s1,1.7,1,1.7l7.5-4C58.1,90.9,61.4,81.5,53.9,81.8Z"/>
      <circle id="楕円形_26" data-name="楕円形 26" class="cls-9" cx="1.7" cy="1.7" r="1.7" transform="translate(30.205 133.504) rotate(-84.855)"/>
      <g id="グループ化_119" data-name="グループ化 119">
        <path id="パス_134" data-name="パス 134" class="cls-10" d="M34.6,130.6c.6-7.5.5-21.7,1.1-29.7s.9-14.6.9-14.6-7.1,4.7-9.4,5.4c-2.4.8-4.1,1.5-5.5,1.8,0,0-3.5,1.9-4.7,13.7s-3.9,29.2-4.5,32.1a.756.756,0,0,1-.1.4H33.7C34.1,136.4,34.4,133.1,34.6,130.6Z"/>
      </g>
      <path id="パス_135" data-name="パス 135" class="cls-11" d="M22.4,139.7h-.1a.752.752,0,0,1-.5-.7c1.4-6.1-1-22.3-1-22.5a.752.752,0,0,1,.5-.7c.3-.1.6.2.7.5.1.7,2.4,16.5,1,22.9A.56.56,0,0,1,22.4,139.7Z"/>
      <g id="グループ化_120" data-name="グループ化 120">
        <path id="パス_136" data-name="パス 136" class="cls-10" d="M82.7,133.9c-.7-6.6-1.9-34.1-2.3-37-.4-3-1.7-5.1-3.4-5.7s-8.5-2.9-11.7-4a42.368,42.368,0,0,1-7.9-4.4s-7.1,32.2-8.3,39.3a75.567,75.567,0,0,0-1.2,15.1c0,.5.1,1.4.2,2.5H83.2C83,137.5,82.9,135.4,82.7,133.9Z"/>
      </g>
      <path id="パス_137" data-name="パス 137" class="cls-11" d="M71.1,139.9a.634.634,0,0,1-.6-.5c-1.8-10.7-.6-27.5-.6-27.7a.6.6,0,0,1,1.2,0c0,.2-1.3,16.9.6,27.4.1.3-.2.6-.5.7C71.2,139.9,71.2,139.9,71.1,139.9Z"/>
      <path id="パス_138" data-name="パス 138" class="cls-11" d="M48.7,130.6h-.1a.752.752,0,0,1-.5-.7c.3-1.9,1.7-4.5,3.7-8.4.9-1.8,1.9-3.8,3.1-6.1,3.2-6.6,8.4-18.7,9.5-21.3l-3.6-2.3a.567.567,0,0,1,0-1l3.1-1.6-.5-1.4a.632.632,0,0,1,1.2-.4l.6,1.9a.517.517,0,0,1-.3.7l-2.6,1.3,3.1,2a.663.663,0,0,1,.2.7c-.1.1-6.1,14.4-9.7,21.8-1.1,2.3-2.2,4.4-3.1,6.1-2,3.8-3.3,6.4-3.6,8.1A.466.466,0,0,1,48.7,130.6Z"/>
      <path id="パス_139" data-name="パス 139" class="cls-11" d="M33.7,129.5a.675.675,0,0,1-.6-.4c-4.9-15.7-5.4-32.9-5.4-33.1a.864.864,0,0,1,.3-.6l3.2-1.6-1.3-1.7a.44.44,0,0,1-.1-.5c0-.2.1-.3.3-.4L34.9,88a.583.583,0,1,1,.6,1l-4.2,2.8,1.4,1.7a.44.44,0,0,1,.1.5c0,.2-.2.3-.3.4L29,96.3c.1,2.6.9,18.2,5.3,32.4a.68.68,0,0,1-.4.8C33.8,129.4,33.8,129.5,33.7,129.5Z"/>
      <path id="パス_140" data-name="パス 140" class="cls-7" d="M40.5,88s-1.1,1.8-.6,2.8.8,2.4.5,2.9-1.2-.5-1.2-.7-2.3-2.2-2.7-2.7c-.8-1,.3-2,.8-2.3C38,87.6,40.5,88,40.5,88Z"/>
      <path id="パス_141" data-name="パス 141" class="cls-8" d="M40.9,83a27.7,27.7,0,0,1-.5,5.4s-4.6-1.8-3.3,1.5c.9,2.4,3.8,3.1,3.1,4.8s-1.2.4-1.4-.4a10.072,10.072,0,0,0-2.6-3.7c-1.1-.9-.8-2.5.5-4.8A5.253,5.253,0,0,1,40.9,83Z"/>
    </g>
  </g>
</svg>
