<svg xmlns="http://www.w3.org/2000/svg" xmlns:xlink="http://www.w3.org/1999/xlink" viewBox="5870 994 142 142">
  <defs>
    <style>
      .cls-1 {
        fill: #f7f7f7;
      }

      .cls-2 {
        clip-path: url(#clip-path);
      }

      .cls-3 {
        fill: #1e1e1e;
      }

      .cls-4 {
        fill: #444;
      }

      .cls-5 {
        fill: #f8cfbd;
      }

      .cls-6 {
        fill: #0e2d44;
      }

      .cls-7 {
        fill: #08517a;
      }

      .cls-8 {
        fill: #032d3f;
      }
    </style>
    <clipPath id="clip-path">
      <circle id="楕円形_17" data-name="楕円形 17" class="cls-1" cx="71" cy="71" r="71" transform="translate(1279 986)"/>
    </clipPath>
  </defs>
  <g id="マスクグループ_5" data-name="マスクグループ 5" class="cls-2" transform="translate(4591 8)">
    <circle id="楕円形_28" data-name="楕円形 28" class="cls-1" cx="71" cy="71" r="71" transform="translate(1279 986)"/>
    <g id="グループ化_229" data-name="グループ化 229" transform="translate(1313 1009.006)">
      <path id="パス_372" data-name="パス 372" class="cls-3" d="M57.9,11.5s10.6-.2,12.2,11.7c2.4,17.3-4,24.7-13.5,30.5-12.9,7.9-15.4,8.5-15.4,8.5S14.5,60.3,8,50.8c-9-13-8-34.5,11.4-44.9C38.8-4.4,55-.4,57.9,11.5Z"/>
      <path id="パス_373" data-name="パス 373" class="cls-4" d="M66.8,42h0a.563.563,0,0,1-.6-.7c1.2-22.4-9-23.8-9.1-23.8-.3,0-.6-.4-.6-.7s.4-.6.7-.6c.5.1,11.5,1.6,10.2,25.2A.576.576,0,0,1,66.8,42Z"/>
      <path id="パス_374" data-name="パス 374" class="cls-5" d="M63.2,40.5s5-3.5,8.3-.3S73,50.3,70,51.3s-7.5-1.4-7.5-1.4Z"/>
      <path id="パス_375" data-name="パス 375" class="cls-5" d="M15.7,23.5c-6.4,7.4-7.3,16.1-7,24.3C9.1,59.9,16,72.3,23.5,78.4,30.4,84,36.8,80.8,42.1,80c9.2-1.3,18.5-9.8,22.5-23.3,2.5-8.5-1-13.3-1.9-19.9,0,0-2.3-16.8-17.3-20.1C30.3,13.4,20.1,15.8,15.7,23.5Z"/>
      <path id="パス_376" data-name="パス 376" class="cls-3" d="M11.4,24.5c-3.2,8.9,0,20.4,0,20.4,2.7-17.3,16.4-21.2,16.4-21.2a15.751,15.751,0,0,0-8,11.7,115.585,115.585,0,0,1,13.9-6.3,88.533,88.533,0,0,0,12.9-5.9c-2.7,2.1-3.5,8.7-3.5,8.7,8.2-3.3,9.5-7.9,9.5-7.9s2.9,13.5,9.5,22c0,0,6.9-17-5.3-28.1S17,8.8,11.4,24.5Z"/>
      <path id="パス_377" data-name="パス 377" class="cls-4" d="M11.4,25.2a.367.367,0,0,1-.3-.1.67.67,0,0,1-.3-.8C21,.3,53.3,12.2,53.7,12.3a.632.632,0,1,1-.4,1.2c-.3-.1-28.1-10.3-39.4,7.8,3.1-2.2,8.8-4.9,18.9-4.6.4,0,.6.3.6.7s-.3.6-.7.6C16.8,17.5,12,24.8,12,24.9A.864.864,0,0,1,11.4,25.2Z"/>
      <path id="パス_378" data-name="パス 378" class="cls-5" d="M29.6,77.1s1.1,1.9.9,7.8c-1,2.1-3.5,4.8-4,6.2,0,0-2.1,24.3,29.1.2,0,0-9.5-7.1-11.1-8.9-.4-1.1-.4-1.6-.4-7Z"/>
      <g id="グループ化_225" data-name="グループ化 225">
        <path id="パス_379" data-name="パス 379" class="cls-6" d="M15.4,131c.1-11.5-1.8-30.1-8.4-31.6,0,0-5.3,11.6-6.2,31.5-.2,4.8-.5,8.5-.8,11.6H14.6C15,138.4,15.3,134.3,15.4,131Z"/>
      </g>
      <g id="グループ化_226" data-name="グループ化 226">
        <path id="パス_380" data-name="パス 380" class="cls-6" d="M71.7,115.8c-.2-13.3-3.3-17.2-3.3-17.2a43.191,43.191,0,0,0-10.9,18.7c-1.4,5.5-1.6,16-1.3,25.2H71.5C71.6,133.1,71.8,122.3,71.7,115.8Z"/>
      </g>
      <g id="グループ化_227" data-name="グループ化 227">
        <path id="パス_381" data-name="パス 381" class="cls-7" d="M36,133.2c1-7.6,2.1-29.7,2.1-29.7l-3.9-8.9s-7.3-2.3-11.4-2.4S7,99.4,7,99.4s1,1.7,2.8,5.2,2.2,7.9,3,14.1c.7,6.1,1.3,13.9,1.3,13.9a99.337,99.337,0,0,1-2.6,10H35C35.3,139,35.7,135.7,36,133.2Z"/>
      </g>
      <g id="グループ化_228" data-name="グループ化 228">
        <path id="パス_382" data-name="パス 382" class="cls-7" d="M58.6,128.1c0-3.3,3-10.9,4.2-16.3,1.3-5.4,5.5-13.2,5.5-13.2S54.7,92.4,51,91.4c-3.7-1.1-6.6,2.5-6.6,2.5l-8.3.2s-4.4-.1-4.7,1.2,2.7,23,2.3,26.8c-.3,3.3-1.6,14.6-2,20.5h25C55.9,137.6,58.6,131.3,58.6,128.1Z"/>
      </g>
      <path id="パス_383" data-name="パス 383" class="cls-8" d="M25.4,89.5c3.1,3.1,8.8,4.1,8.8,4.1s-5.3-3.5-4.7-6.5l1-2.1s-.5-.3-4.1.6C25,87,23.4,87.5,25.4,89.5Z"/>
      <path id="パス_384" data-name="パス 384" class="cls-7" d="M25.4,89.5c-2-2,.6-3.5,2.5-4.2-3.8.7-6.2,2.8-6.5,3.8s-.7,3.1,1.1,3.6c2.9.8,6.8,3.8,13.6,1.4C36.1,94.1,28.5,92.6,25.4,89.5Z"/>
      <path id="パス_385" data-name="パス 385" class="cls-8" d="M51.3,87.5c1.1-1.6,0-3.9-.5-5.4-3.4-.2-4.7-.2-6.4.4,3.2,4.1-3.2,9.5-3.2,9.5S48.7,91,51.3,87.5Z"/>
      <path id="パス_386" data-name="パス 386" class="cls-7" d="M56.1,88.5c-3.1-2.3,1.7-1.9-1-5.1-1.1-1.2-6.2-1.9-9.6-1.2,1.8.1,6.5.8,6.1,2.7-.9,4.2-12,7.6-15.3,9.1,3,1.6,8.8.4,17.1-.2,4.4-.3,3-.5,5,.2C60.3,94.9,59.1,90.9,56.1,88.5Z"/>
    </g>
  </g>
</svg>
