<svg xmlns="http://www.w3.org/2000/svg" xmlns:xlink="http://www.w3.org/1999/xlink" viewBox="9690 1374 142 142">
  <defs>
    <style>
      .cls-1 {
        fill: #f7f7f7;
      }

      .cls-2 {
        clip-path: url(#clip-path);
      }

      .cls-3 {
        fill: #f8cfbd;
      }

      .cls-4 {
        fill: #fff;
      }

      .cls-5 {
        fill: #6f7f96;
      }

      .cls-6 {
        fill: #91a3c1;
      }

      .cls-11, .cls-7, .cls-8, .cls-9 {
        fill: none;
        stroke-miterlimit: 10;
      }

      .cls-7, .cls-8 {
        stroke: #6d6151;
      }

      .cls-7, .cls-8, .cls-9 {
        stroke-width: 0.873px;
      }

      .cls-8, .cls-9 {
        stroke-linecap: round;
      }

      .cls-9 {
        stroke: #6f7f96;
      }

      .cls-10 {
        fill: #994414;
      }

      .cls-11 {
        stroke: #994414;
        stroke-width: 2px;
      }

      .cls-12 {
        fill: #af5020;
      }

      .cls-13 {
        fill: #442906;
      }
    </style>
    <clipPath id="clip-path">
      <circle id="楕円形_95" data-name="楕円形 95" class="cls-1" cx="71" cy="71" r="71" transform="translate(1019 1366)"/>
    </clipPath>
  </defs>
  <g id="マスクグループ_25" data-name="マスクグループ 25" class="cls-2" transform="translate(8671 8)">
    <circle id="楕円形_89" data-name="楕円形 89" class="cls-1" cx="71" cy="71" r="71" transform="translate(1019 1366)"/>
    <g id="グループ化_403" data-name="グループ化 403" transform="translate(1054.046 1394.182)">
      <path id="パス_704" data-name="パス 704" class="cls-3" d="M11.587,81.5C8.132,87.756,8.6,118.944,8.6,118.944h5.136S18.87,104,16.442,96.253C14.108,89.157,11.587,81.5,11.587,81.5Z" transform="translate(-0.607 -5.261)"/>
      <path id="パス_705" data-name="パス 705" class="cls-3" d="M58.158,80.3c5.042,8.777-1.868,38.658-1.868,38.658l-7.19-.093C52.648,92.065,58.158,80.3,58.158,80.3Z" transform="translate(-3.291 -5.181)"/>
      <path id="パス_706" data-name="パス 706" class="cls-3" d="M27.814,62.807S30.709,73.826,23.425,75.6a30.8,30.8,0,0,0-3.642,1.868c-1.868,1.027-7.657,22.41-5.322,22.6,1.214.093,25.212,8.31,34.269,1.774,2.895-2.054,3.081-25.772.56-26.145C37.058,74.012,37.152,72.425,39.113,61.5Z" transform="translate(-0.961 -3.936)"/>
      <path id="パス_707" data-name="パス 707" class="cls-4" d="M19.554,79.2a3.145,3.145,0,0,1,0,4.762c2.148,1.4,1.494,3.175,0,4.109,1.4,1.121.374,3.362-1.027,3.548C15.726,92.179,19.554,79.2,19.554,79.2Z" transform="translate(-1.198 -5.108)"/>
      <path id="パス_708" data-name="パス 708" class="cls-4" d="M49.8,78.8a3.188,3.188,0,0,0-1.587,4.482c-2.521.56-2.521,2.521-1.4,3.828-1.681.56-1.494,2.988-.28,3.735C49.054,92.246,49.8,78.8,49.8,78.8Z" transform="translate(-3.059 -5.082)"/>
      <path id="パス_709" data-name="パス 709" class="cls-4" d="M19.6,92.41a3.142,3.142,0,0,1,4.762.093c1.4-2.148,3.175-1.494,4.109.093,1.121-1.4,3.362-.28,3.548,1.027C32.486,96.331,19.6,92.41,19.6,92.41Z" transform="translate(-1.337 -5.899)"/>
      <path id="パス_710" data-name="パス 710" class="cls-4" d="M46.018,92.5a3.145,3.145,0,0,0-4.762,0c-1.4-2.148-3.175-1.494-4.109,0-1.121-1.4-3.362-.374-3.548,1.027C33.132,96.331,46.018,92.5,46.018,92.5Z" transform="translate(-2.264 -5.898)"/>
      <path id="パス_711" data-name="パス 711" class="cls-5" d="M5.566,106.377c-.84,1.214-.56,2.428.654,2.895,1.4.467,4.2.28,5.7.187,1.587-.093,4.015-2.895,2.148-2.988C12.289,106.377,6.126,105.63,5.566,106.377Z" transform="translate(-0.376 -6.887)"/>
      <path id="パス_712" data-name="パス 712" class="cls-5" d="M60.545,109.993c.654,1.4.093,2.521-1.121,2.708a48.543,48.543,0,0,1-8.871-.934c-1.587-.373,0-3.455,1.774-3.268S60.171,109.153,60.545,109.993Z" transform="translate(-3.344 -7.049)"/>
      <path id="パス_713" data-name="パス 713" class="cls-6" d="M52.709,78.381a6.281,6.281,0,0,0-4.2-1.681c-2.708-.187-2.334,13.54-4.856,14.753s-23.718,1.4-26.052-.467C15.358,89.119,19,78.381,19,78.381,12.184,75.112,3.219,90.8,2.192,97.616c-1.027,6.536,5.509,8.5,9.991,7.75-.56,6.35,5.883,12.139,5.6,13.353,0,.093,2.988,0,2.988,0H42.718a30.976,30.976,0,0,0,5.6-12.326c4.2,2.521,17.181,2.988,17.088-4.669C65.221,95.375,61.206,76.7,52.709,78.381ZM15.265,92.48a3.3,3.3,0,0,1,.093-.56A3.3,3.3,0,0,1,15.265,92.48Z" transform="translate(-0.177 -4.943)"/>
      <g id="グループ化_400" data-name="グループ化 400" transform="translate(21.654 88.916)">
        <path id="パス_714" data-name="パス 714" class="cls-7" d="M30.205,95.1c-4.389-.373-7.75,3.922-6.816,5.322.56.84,2.988-1.307,4.762-3.175A23.737,23.737,0,0,0,30.205,95.1Z" transform="translate(-23.232 -95.075)"/>
        <path id="パス_715" data-name="パス 715" class="cls-7" d="M30.2,95.1c4.389-.374,7.75,4.015,6.816,5.322-.56.84-2.988-1.4-4.762-3.175C31.134,96.126,30.2,95.1,30.2,95.1Z" transform="translate(-23.694 -95.075)"/>
        <path id="パス_716" data-name="パス 716" class="cls-8" d="M30.028,96.6c-.187,3.175-3.828,9.524-3.828,9.524" transform="translate(-23.429 -95.176)"/>
        <path id="パス_717" data-name="パス 717" class="cls-8" d="M30.6,96.6c.187,3.175,1.868,11.952,1.868,11.952" transform="translate(-23.72 -95.176)"/>
      </g>
      <g id="グループ化_401" data-name="グループ化 401" transform="translate(26.106 100.984)">
        <path id="パス_718" data-name="パス 718" class="cls-9" d="M28,108c.747.84,2.615,3.268,2.615,3.268" transform="translate(-28 -108)"/>
        <path id="パス_719" data-name="パス 719" class="cls-9" d="M30.715,108.1c-.747.84-2.615,3.268-2.615,3.268" transform="translate(-28.007 -108.007)"/>
      </g>
      <g id="グループ化_402" data-name="グループ化 402" transform="translate(26.106 105.933)">
        <path id="パス_720" data-name="パス 720" class="cls-9" d="M28,113.3c.747.84,2.615,3.268,2.615,3.268" transform="translate(-28 -113.3)"/>
        <path id="パス_721" data-name="パス 721" class="cls-9" d="M30.708,113.3c-.747.84-2.708,3.175-2.708,3.175" transform="translate(-28 -113.3)"/>
      </g>
      <ellipse id="楕円形_90" data-name="楕円形 90" class="cls-10" cx="21.196" cy="19.329" rx="21.196" ry="19.329" transform="translate(42.069 42.393) rotate(-89.746)"/>
      <circle id="楕円形_91" data-name="楕円形 91" class="cls-11" cx="10.925" cy="10.925" r="10.925" transform="translate(58.529 56.446) rotate(-89.746)"/>
      <circle id="楕円形_92" data-name="楕円形 92" class="cls-11" cx="10.925" cy="10.925" r="10.925" transform="translate(44.442 69.197) rotate(-89.746)"/>
      <circle id="楕円形_93" data-name="楕円形 93" class="cls-10" cx="10.925" cy="10.925" r="10.925" transform="translate(54.992 55.429) rotate(-89.746)"/>
      <circle id="楕円形_94" data-name="楕円形 94" class="cls-10" cx="10.925" cy="10.925" r="10.925" transform="translate(43.582 66.786) rotate(-89.746)"/>
      <path id="パス_722" data-name="パス 722" class="cls-12" d="M54.039,34.742a.514.514,0,0,1-.467-.28c-5.7-9.058-3.642-20.916,4.669-26.425A13.353,13.353,0,0,1,68.7,6.076a15.977,15.977,0,0,1,9.991,7.1c3.735,5.883,2.334,13.633-2.988,17.181a9.281,9.281,0,0,1-6.816,1.307,10.311,10.311,0,0,1-6.536-4.669c-2.428-3.828-1.494-8.964,1.961-11.3a5.648,5.648,0,0,1,4.575-.84,6.817,6.817,0,0,1,4.3,3.081c1.587,2.521,1.027,5.976-1.307,7.47a3.962,3.962,0,0,1-3.081.56A4.94,4.94,0,0,1,65.9,23.911a3.654,3.654,0,0,1,.934-5.042,2.9,2.9,0,0,1,2.148-.374,3,3,0,0,1,1.961,1.4.544.544,0,1,1-.934.56,2.39,2.39,0,0,0-1.214-.934,1.781,1.781,0,0,0-1.214.187,2.6,2.6,0,0,0-.56,3.548,3.318,3.318,0,0,0,2.148,1.587,2.82,2.82,0,0,0,2.148-.374,4.357,4.357,0,0,0,1.027-5.976,5.651,5.651,0,0,0-3.548-2.521,4.89,4.89,0,0,0-3.642.654,7.205,7.205,0,0,0-1.681,9.711,8.915,8.915,0,0,0,5.789,4.109,7.869,7.869,0,0,0,5.976-1.121c4.856-3.268,6.069-10.271,2.708-15.687A15.061,15.061,0,0,0,68.7,7.01a12.429,12.429,0,0,0-9.618,1.774c-7.75,5.229-9.711,16.341-4.3,24.931a.489.489,0,0,1-.187.747C54.319,34.742,54.225,34.742,54.039,34.742Z" transform="translate(-3.374 -0.242)"/>
      <path id="パス_723" data-name="パス 723" class="cls-13" d="M34.6,6.37S66.161-7.917,63.173,23.458Z" transform="translate(-2.331 -0.069)"/>
      <path id="パス_724" data-name="パス 724" class="cls-3" d="M62.341,41.359s4.762-1.961,6.91,1.307-.56,8.591-3.268,8.871S60.1,49.015,60.1,49.015Z" transform="translate(-4.02 -2.563)"/>
      <path id="パス_725" data-name="パス 725" class="cls-3" d="M14.142,16.245c-3.922,1.4-4.669,12.7-5.6,16.061-1.868,6.63-.56,15.127,2.988,20.543C22.64,69.843,44.023,69.1,56.068,48.18c4.762-8.31,3.828-17.275-1.681-24S41.221,12.137,31.977,12.7A65.108,65.108,0,0,0,14.142,16.245Z" transform="translate(-0.548 -0.701)"/>
      <path id="パス_726" data-name="パス 726" class="cls-10" d="M58.55,16.772c-6.069-8.871-24-15.5-37.07-9.151a26.424,26.424,0,0,0-9.151,7.657q-2.381.84-5.883,2.241c-8.871,3.642-7,16.154-3.455,18.489C6.446,38.342,21.2,18.827,21.2,18.827,27.082,33.02,45.57,31.059,45.57,31.059c2.8,8.684,10.552,11.859,14.006,9.711,1.307-.84,2.241-3.455,1.961-7C62.285,28.724,63.032,23.309,58.55,16.772Z" transform="translate(-0.042 -0.201)"/>
    </g>
  </g>
</svg>
