<svg xmlns="http://www.w3.org/2000/svg" xmlns:xlink="http://www.w3.org/1999/xlink" viewBox="5090 994 142 142">
  <defs>
    <style>
      .cls-1 {
        fill: #f7f7f7;
      }

      .cls-2 {
        clip-path: url(#clip-path);
      }

      .cls-3 {
        fill: #f8cfbd;
      }

      .cls-4 {
        fill: #f2f2f2;
      }

      .cls-5 {
        fill: #cecece;
      }

      .cls-6 {
        fill: #fff;
      }

      .cls-7 {
        fill: #353142;
      }

      .cls-8 {
        fill: #231815;
      }

      .cls-9 {
        fill: #a69d8d;
      }

      .cls-10 {
        fill: #7f7566;
      }
    </style>
    <clipPath id="clip-path">
      <circle id="楕円形_17" data-name="楕円形 17" class="cls-1" cx="71" cy="71" r="71" transform="translate(499 986)"/>
    </clipPath>
  </defs>
  <g id="マスクグループ_3" data-name="マスクグループ 3" class="cls-2" transform="translate(4591 8)">
    <circle id="楕円形_22" data-name="楕円形 22" class="cls-1" cx="71" cy="71" r="71" transform="translate(499 986)"/>
    <g id="グループ化_113" data-name="グループ化 113" transform="translate(535 1014.003)">
      <path id="パス_105" data-name="パス 105" class="cls-3" d="M27.5,69.3s2.4,11.6-.4,17.5c0,0,4.2,10.8,16.7.8,0,0-3.8-10.4-2.5-19.9Z"/>
      <g id="グループ化_113-2" data-name="グループ化 113">
        <path id="パス_106" data-name="パス 106" class="cls-4" d="M30.3,132.5c.3-3.9,1.1-15.6,1.2-19.2s-.2-22-.2-22a5.731,5.731,0,0,0-1.4-1.5c-1.1-.5-1.9-4-1.8-4.7.1-.4-3.1.6-3.1.6a3.126,3.126,0,0,0-2.2,3c.1,2.3-1.2,29.9-1.2,34,0,1.9-.7,7.8-1.4,13.6h10A21.688,21.688,0,0,1,30.3,132.5Z"/>
      </g>
      <g id="グループ化_114" data-name="グループ化 114">
        <path id="パス_107" data-name="パス 107" class="cls-4" d="M40.4,112.6c1.2-8,5.9-30,5.9-30L38,83.8a9.62,9.62,0,0,0-2.2,1.9c-.5.9.2,1.7-.3,2.5-.5.7-3.8,1.5-4.6,3s-2.6,13-2.7,20.4-.6,19.8-.6,23.8v.8H39.5C39.6,127.3,39.7,116.8,40.4,112.6Z"/>
      </g>
      <path id="パス_108" data-name="パス 108" class="cls-5" d="M38,83.8a3.087,3.087,0,0,1,.1,2c-.3,1.2-.9,1.7-.6,2.8.3,1,3.1-1.4,3-3.2C40.3,83.6,38,83.8,38,83.8Z"/>
      <path id="パス_109" data-name="パス 109" class="cls-6" d="M41.5,78.4A14.115,14.115,0,0,1,38,83.8s3-.1,2.5,1.6c-.5,1.6-3.1,2.8-3.2,4.4s1,1.7,1,1.7l7.5-4C45.7,87.5,49,78.1,41.5,78.4Z"/>
      <circle id="楕円形_25" data-name="楕円形 25" class="cls-6" cx="1.7" cy="1.7" r="1.7" transform="translate(17.812 130.166) rotate(-84.855)"/>
      <g id="グループ化_115" data-name="グループ化 115">
        <path id="パス_110" data-name="パス 110" class="cls-7" d="M22.2,127.2c.6-7.5.5-21.7,1.1-29.7s.9-14.6.9-14.6-7.1,4.7-9.4,5.4c-2.4.8-4.1,1.5-5.5,1.8,0,0-3.5,1.9-4.7,13.7S.7,133,.1,135.9a.756.756,0,0,1-.1.4H21.3C21.7,133,22,129.7,22.2,127.2Z"/>
      </g>
      <path id="パス_111" data-name="パス 111" class="cls-8" d="M10,136.2H9.9a.752.752,0,0,1-.5-.7c1.4-6.1-1-22.3-1-22.5a.752.752,0,0,1,.5-.7c.3-.1.6.2.7.5.1.7,2.4,16.5,1,22.9A.56.56,0,0,1,10,136.2Z"/>
      <g id="グループ化_116" data-name="グループ化 116">
        <path id="パス_112" data-name="パス 112" class="cls-7" d="M70.3,130.5c-.7-6.6-1.9-34.1-2.3-37-.4-3-1.7-5.1-3.4-5.7s-8.5-2.9-11.7-4A42.368,42.368,0,0,1,45,79.4s-7.1,32.2-8.3,39.3a75.567,75.567,0,0,0-1.2,15.1c0,.5.1,1.4.2,2.5H70.8C70.6,134,70.5,132,70.3,130.5Z"/>
      </g>
      <path id="パス_113" data-name="パス 113" class="cls-8" d="M58.7,136.5a.634.634,0,0,1-.6-.5c-1.8-10.7-.6-27.5-.6-27.7a.6.6,0,1,1,1.2,0c0,.2-1.3,16.9.6,27.4.1.3-.2.6-.5.7C58.8,136.5,58.8,136.5,58.7,136.5Z"/>
      <path id="パス_114" data-name="パス 114" class="cls-8" d="M36.3,127.2h-.1a.752.752,0,0,1-.5-.7c.3-1.9,1.7-4.5,3.7-8.4.9-1.8,1.9-3.8,3.1-6.1,3.2-6.6,8.4-18.7,9.5-21.3l-3.6-2.3a.567.567,0,0,1,0-1l3.1-1.6L51,84.4a.632.632,0,1,1,1.2-.4l.6,1.9a.517.517,0,0,1-.3.7l-2.6,1.3,3.1,2a.663.663,0,0,1,.2.7c-.1.1-6.1,14.4-9.7,21.8-1.1,2.3-2.2,4.4-3.1,6.1-2,3.8-3.3,6.4-3.6,8.1C36.8,127,36.6,127.2,36.3,127.2Z"/>
      <path id="パス_115" data-name="パス 115" class="cls-8" d="M21.3,126a.675.675,0,0,1-.6-.4c-4.9-15.7-5.4-32.9-5.4-33.1a.864.864,0,0,1,.3-.6l3.2-1.6-1.3-1.7a.44.44,0,0,1-.1-.5c0-.2.1-.3.3-.4l4.8-3.2a.583.583,0,1,1,.6,1l-4.2,2.8L20.3,90a.44.44,0,0,1,.1.5c0,.2-.2.3-.3.4l-3.5,1.8c.1,2.6.9,18.2,5.3,32.4a.68.68,0,0,1-.4.8C21.4,126,21.4,126,21.3,126Z"/>
      <path id="パス_116" data-name="パス 116" class="cls-5" d="M28.1,84.5s-1.1,1.8-.6,2.8.8,2.4.5,2.9-1.2-.5-1.2-.7-2.3-2.2-2.7-2.7c-.8-1,.3-2,.8-2.3C25.6,84.1,28.1,84.5,28.1,84.5Z"/>
      <path id="パス_117" data-name="パス 117" class="cls-6" d="M28.5,79.6A27.7,27.7,0,0,1,28,85s-4.6-1.8-3.3,1.5c.9,2.4,3.8,3.1,3.1,4.8s-1.2.4-1.4-.4a10.072,10.072,0,0,0-2.6-3.7c-1.1-.9-.8-2.5.5-4.8A5.038,5.038,0,0,1,28.5,79.6Z"/>
      <path id="パス_118" data-name="パス 118" class="cls-9" d="M11.7,49s-10-9.2-3.3-35.7C11.2,2.2,22.2-.1,41.7,0S59.5,8.8,59.5,8.8c6.5.9,8.1,9.6,8.1,17,0,4.2-3.8,25.1-3.8,25.1Z"/>
      <path id="パス_119" data-name="パス 119" class="cls-3" d="M10.4,22.1C9.5,29.5,9.8,37,10,44.6c.3,11,1.9,23,13.3,28,4.5,1.9,12.1,1.3,16.9,1.6,6.9.4,17.6-9.1,20.7-21.1,1.5-6-.9-12.1-1.6-18.2,0,0-2-15.4-15.6-18.5C30,13.3,14.5,15.1,10.4,22.1Z"/>
      <path id="パス_120" data-name="パス 120" class="cls-3" d="M59.5,44.9s4.6-3.1,7.6-.2,1.3,9.2-1.5,10.1-6.8-1.3-6.8-1.3Z"/>
      <path id="パス_121" data-name="パス 121" class="cls-9" d="M60.7,48.5,58.1,37.4c-6-2.7-8.8-16.8-8.8-16.8-13.6,8.5-35.2.8-35.2.8A82.183,82.183,0,0,0,9.8,45.3S4.2,21.1,12.8,15,43.6.8,55.5,9.3C55.5,9.3,71.1,11.8,60.7,48.5Z"/>
      <path id="パス_122" data-name="パス 122" class="cls-10" d="M35.4,21.9h0A29.733,29.733,0,0,1,13.7,9.8c-.7,2.2-1.4,6.7,2.5,10a.711.711,0,1,1-.9,1.1c-6.2-5.1-2.5-13-2.4-13.1a.822.822,0,0,1,.6-.4.755.755,0,0,1,.7.4,28.259,28.259,0,0,0,17.4,12A24.241,24.241,0,0,1,22.2,7.6a.728.728,0,1,1,1.4-.4A23.117,23.117,0,0,0,35.8,20.5a.68.68,0,0,1,.4.8A.871.871,0,0,1,35.4,21.9Z"/>
      <path id="パス_123" data-name="パス 123" class="cls-10" d="M63.2,42.3h0c-.5-.1-.8-.4-.7-.8,2.5-22-4-24.9-4-24.9a.7.7,0,1,1,.5-1.3c.3.1,7.7,3,5,26.5A.953.953,0,0,1,63.2,42.3Z"/>
    </g>
  </g>
</svg>
