<svg xmlns="http://www.w3.org/2000/svg" xmlns:xlink="http://www.w3.org/1999/xlink" viewBox="5090 1374 142 142">
  <defs>
    <style>
      .cls-1 {
        fill: #f7f7f7;
      }

      .cls-2 {
        clip-path: url(#clip-path);
      }

      .cls-3 {
        fill: #f8cfbd;
      }

      .cls-4 {
        fill: #fff;
      }

      .cls-5 {
        fill: #e5e5e5;
      }

      .cls-6 {
        fill: #3c3637;
      }

      .cls-7 {
        fill: #3f3a3a;
      }

      .cls-8 {
        fill: #565655;
      }

      .cls-9 {
        fill: #7f7f7f;
      }
    </style>
    <clipPath id="clip-path">
      <circle id="楕円形_17" data-name="楕円形 17" class="cls-1" cx="71" cy="71" r="71" transform="translate(499 1366)"/>
    </clipPath>
  </defs>
  <g id="マスクグループ_6" data-name="マスクグループ 6" class="cls-2" transform="translate(4591 8)">
    <circle id="楕円形_29" data-name="楕円形 29" class="cls-1" cx="71" cy="71" r="71" transform="translate(499 1366)"/>
    <g id="グループ化_133" data-name="グループ化 133" transform="translate(536 1389.978)">
      <path id="パス_201" data-name="パス 201" class="cls-3" d="M26.4,76.8s.1,4.2-1.4,6.3c0,0-1.3,14.3,3.9,14.8,5.1.5,8.9-16.2,8.9-16.2a8.7,8.7,0,0,1-.9-6Z"/>
      <path id="パス_202" data-name="パス 202" class="cls-4" d="M40.5,117.5l5.7-31.3-4.1-1.7-4.4-2.8a66.843,66.843,0,0,1-8.1,11.6S25.9,87,25.2,82.7l-5.7,4.2-3.2,1.5,2,29.7C18.3,118,34,118.8,40.5,117.5Z"/>
      <path id="パス_203" data-name="パス 203" class="cls-5" d="M34.8,97.4a.367.367,0,0,1-.3-.1A29.546,29.546,0,0,1,29.4,94a29.723,29.723,0,0,1-5.7,2.6.807.807,0,0,1-.9-.4c-1.4-3.3-3-8.6-3.1-8.9a.728.728,0,1,1,1.4-.4c0,.1,1.5,4.8,2.8,8.1A17.1,17.1,0,0,0,29,92.5a.746.746,0,0,1,.9,0,28.252,28.252,0,0,0,4.7,3.2,108.935,108.935,0,0,0,6.7-10.9.738.738,0,1,1,1.3.7,105.448,105.448,0,0,1-7.2,11.6A.864.864,0,0,1,34.8,97.4Z"/>
      <path id="パス_204" data-name="パス 204" class="cls-4" d="M13,100.7,10.6,91,7.3,92.5s-3.5,2.8-5.1,11.3C.7,112.3,0,138.1,0,138.1a21.345,21.345,0,0,0,8.3,0s.1-2.3.1-5.8C11.3,121.7,13,100.7,13,100.7Z"/>
      <path id="パス_205" data-name="パス 205" class="cls-4" d="M62.6,103.3c-1.8-12.4-6.8-13.7-6.8-13.7L50.9,88l-3.1,12.6s-.3,19.6,7.4,34.8c0-1.9.5,2.7.5,2.7a21.808,21.808,0,0,0,9.5-.5S64.4,115.6,62.6,103.3Z"/>
      <path id="パス_206" data-name="パス 206" class="cls-6" d="M25.9,95.8l3.5-1.7,2.9,2.1-2.1,4.9,2.1,16.6s1.8,13.4-4.6,13c-6.4-.3-4.4-18.1-4.4-18.1l3.5-11.5Z"/>
      <path id="パス_207" data-name="パス 207" class="cls-7" d="M55.7,138.1c-3.8-15.6-4-49.9-4-49.9l-5.5-2L26.9,115.8,16.3,88.3l-5.7,2.6L8.3,138.1Z"/>
      <path id="パス_208" data-name="パス 208" class="cls-3" d="M6.7,23C4.5,30.8,4.9,39.8,5,47.1,5.1,59,8.5,69.6,18.8,77.6c6.3,5,13.1,1.7,18.3,2.1,7.5.6,19.2-9.5,22.9-22.3,1.8-6.4,3-13,2.3-19.6-1.4-7.8-.8-15.9-5.8-22.6C48.7,5,29.8,3.4,18.8,8.1,11.9,11,8.4,16.6,6.7,23Z"/>
      <path id="パス_209" data-name="パス 209" class="cls-3" d="M58.5,48.6s5.1-3.3,8.2,0c3.2,3.2,1.2,10-1.8,10.9s-7.3-1.6-7.3-1.6Z"/>
      <path id="パス_210" data-name="パス 210" class="cls-8" d="M43.1,18.8c-5.5-2-20.4-2.1-27.1,1.8C9.4,24.5.4,33.2.4,33.2S1.1,13.8,15.3,6C29.4-1.8,43.9-1.5,46.9,4.2c0,0,32.2,3,14.1,47.2l-3.4,6.5C57.5,57.9,59.7,24.8,43.1,18.8Z"/>
      <path id="パス_211" data-name="パス 211" class="cls-9" d="M44.5,18.2h0a.563.563,0,0,1-.6-.7c0-.1.2-5.1-3-8.5a11.405,11.405,0,0,0-8.4-3.1.6.6,0,1,1,0-1.2c4,0,7.1,1.2,9.3,3.5,3.6,3.8,3.4,9.2,3.4,9.4A.73.73,0,0,1,44.5,18.2Z"/>
      <path id="パス_212" data-name="パス 212" class="cls-9" d="M33.6,16.9a.56.56,0,0,1-.6-.5c-.1-.4-1.9-8.4-15.6-7a.652.652,0,1,1-.1-1.3c14.8-1.5,16.9,7.9,16.9,8a.587.587,0,0,1-.5.7C33.7,16.9,33.7,16.9,33.6,16.9Z"/>
      <path id="パス_213" data-name="パス 213" class="cls-9" d="M16.6,19a.367.367,0,0,1-.3-.1c-1.7-.8-6.5-2.5-8.5-.8a.64.64,0,0,1-.8-1c3-2.7,9.6.4,9.9.6s.5.5.3.8C17.1,18.9,16.9,19,16.6,19Z"/>
      <path id="パス_214" data-name="パス 214" class="cls-9" d="M62.2,20.5a.55.55,0,0,1-.5-.3,7.294,7.294,0,0,0-4.9-3.3c-4.4-.7-9,2.6-9.1,2.6a.64.64,0,0,1-.8-1c.2-.2,5.1-3.7,10.1-2.9a8.746,8.746,0,0,1,5.8,3.9.651.651,0,0,1-.2.9C62.4,20.4,62.3,20.5,62.2,20.5Z"/>
      <path id="パス_215" data-name="パス 215" class="cls-9" d="M64,31a.55.55,0,0,1-.5-.3c-3.3-5.3-10.1-4.4-10.2-4.4-.3,0-.7-.2-.7-.5a.587.587,0,0,1,.5-.7c.3,0,7.7-1.1,11.4,4.9a.651.651,0,0,1-.2.9A.367.367,0,0,1,64,31Z"/>
    </g>
  </g>
</svg>
