<svg xmlns="http://www.w3.org/2000/svg" xmlns:xlink="http://www.w3.org/1999/xlink" viewBox="5610 1374 142 142">
  <defs>
    <style>
      .cls-1 {
        fill: #f7f7f7;
      }

      .cls-2 {
        clip-path: url(#clip-path);
      }

      .cls-3 {
        fill: #f8cfbd;
      }

      .cls-4 {
        fill: #f4f4f4;
      }

      .cls-5 {
        fill: #6b6b6b;
      }

      .cls-6 {
        fill: #4c4c4c;
      }

      .cls-7 {
        fill: #03183a;
      }

      .cls-8 {
        fill: #cecece;
      }

      .cls-9 {
        fill: #fff;
      }

      .cls-10 {
        fill: #1d2a3d;
      }
    </style>
    <clipPath id="clip-path">
      <circle id="楕円形_17" data-name="楕円形 17" class="cls-1" cx="71" cy="71" r="71" transform="translate(1019 1366)"/>
    </clipPath>
  </defs>
  <g id="マスクグループ_7" data-name="マスクグループ 7" class="cls-2" transform="translate(4591 8)">
    <circle id="楕円形_30" data-name="楕円形 30" class="cls-1" cx="71" cy="71" r="71" transform="translate(1019 1366)"/>
    <g id="グループ化_134" data-name="グループ化 134" transform="translate(1053.206 1391.962)">
      <path id="パス_216" data-name="パス 216" class="cls-3" d="M28.1,71.7s2.4,11.6-.4,17.5c0,0,4.2,10.8,16.7.8,0,0-3.8-10.4-2.5-19.9Z"/>
      <path id="パス_217" data-name="パス 217" class="cls-4" d="M70.9,133c-.7-6.6-1.9-34.2-2.3-37.1-.4-3-1.7-5.1-3.4-5.8-1.7-.6-8.5-2.9-11.7-4a42.368,42.368,0,0,1-7.9-4.4s-.3,1.3-.7,3.4l-6.3,1A9.62,9.62,0,0,0,36.4,88c-.5.9.2,1.7-.3,2.5-.4.7-3.5,1.4-4.5,2.8A5.022,5.022,0,0,0,30.4,92c-1.1-.5-1.9-4-1.8-4.7.1-.4-3.1.6-3.1.6a2.5,2.5,0,0,0-.8.4c.1-2,.2-3.2.2-3.2s-7.1,4.7-9.4,5.4c-2.4.8-4.1,1.5-5.5,1.8,0,0-3.5,1.9-4.7,13.7S1.4,135.4.8,138.4c0,.1,0-.4-.1.6H71.4C71.2,136,71.1,134.5,70.9,133Z"/>
      <path id="パス_218" data-name="パス 218" class="cls-5" d="M9.5,58.7s3.1,7.5,6.5,12,32.8-.6,32.8-.6a22.279,22.279,0,0,1-1.2,7.1s4.1-1.2,7.6-9.8c0,0-.6,5.4-2,8.2,0,0,15-14.2,17.4-32a56.234,56.234,0,0,1,2.1,6.9s2.4-16.9-2-25c0,0,2.6,1.7,4.8,3.2A115.457,115.457,0,0,1,69,18C67,13.9,41-11.7,22.9,6.5a34.845,34.845,0,0,0-10,3.5C8.3,12.6,1.6,13.1,1.6,13.1a16.459,16.459,0,0,0,8.1,1.7S-1.4,23-.1,41.9L3.6,40Z"/>
      <path id="パス_219" data-name="パス 219" class="cls-3" d="M58.7,40.3s4.7-3.2,7.8-.3c3.1,3,1.4,9.4-1.4,10.3s-7-1.3-7-1.3Z"/>
      <path id="パス_220" data-name="パス 220" class="cls-3" d="M7.9,24c-.8,7.6-.5,15.3-.2,23,.4,11.3,5.8,25.5,13.9,28.5C26.3,77.3,34,77.7,39,77c8.6-1.2,18-9.5,21-21.7,1.5-6.1-1-12.4-1.8-18.6C58.1,36.7,56,21,42,18,27.9,14.9,12,16.8,7.9,24Z"/>
      <path id="パス_221" data-name="パス 221" class="cls-5" d="M6.9,32.3S7.6,38.7,13,46c0,0-1-11.8,1.8-21,0,0,1.6,10.6,17.7,19.6,0,0-7.4-8.6-8.6-14.3,0,0,5.5,9.8,25.8,12.4a7.058,7.058,0,0,1,2,6.5s2.1-1,3.5-5.1c0,0,2.6,2.5,2.4,5.1A19.961,19.961,0,0,0,61,29.4C56.7,17.8,43.4,2.6,20.3,9.6,20.3,9.6,3.7,16.8,6.9,32.3Z"/>
      <path id="パス_222" data-name="パス 222" class="cls-6" d="M63.8,30.5c-5,0-14.2-1.4-25.6-9.6a.57.57,0,0,1,.7-.9c13.4,9.6,23.7,9.6,27.3,9.2A75.111,75.111,0,0,1,52.1,15.6C44.5,6.3,26.2,11.2,26,11.2a.57.57,0,1,1-.3-1.1c.8-.1,19.2-5,27.3,4.9A69.469,69.469,0,0,0,68,29.1a.6.6,0,0,1,.3.6.664.664,0,0,1-.4.5A29.508,29.508,0,0,1,63.8,30.5Z"/>
      <path id="パス_223" data-name="パス 223" class="cls-6" d="M50.7,35.9h0C26,32.3,18.7,16.6,18.6,16.5a.539.539,0,1,1,1-.4c.1.2,7.2,15.2,31.1,18.8a.56.56,0,0,1,.5.6A.458.458,0,0,1,50.7,35.9Z"/>
      <path id="パス_224" data-name="パス 224" class="cls-7" d="M70.9,133c-.7-6.6-1.9-34.2-2.3-37.1-.4-3-1.7-4.9-3.4-5.8-4.9-2.5-19.6-8.4-19.6-8.4a17.774,17.774,0,0,1-14,11.6,8.867,8.867,0,0,1-6.8-8.2s-10.6,5.2-15,7.2c0,0-3.5,1.9-4.7,13.7S1.2,135.4.6,138.4c0,.1,0-.4-.1.6H71.2A42.344,42.344,0,0,0,70.9,133Z"/>
      <path id="パス_225" data-name="パス 225" class="cls-8" d="M38.6,86.1a3.087,3.087,0,0,1,.1,2c-.3,1.2-.9,1.7-.6,2.8.3,1,3.1-1.4,3-3.2C40.9,85.9,38.6,86.1,38.6,86.1Z"/>
      <path id="パス_226" data-name="パス 226" class="cls-9" d="M42.1,80.7a14.115,14.115,0,0,1-3.5,5.4s3-.1,2.5,1.6c-.5,1.6-3.1,2.8-3.2,4.4s1,1.7,1,1.7l7.5-4C46.3,89.8,49.6,80.4,42.1,80.7Z"/>
      <path id="パス_227" data-name="パス 227" class="cls-8" d="M28.7,86.9s-1.1,1.8-.6,2.8.8,2.4.5,2.9-1.2-.5-1.2-.7-2.3-2.2-2.7-2.7c-.8-1,.3-2,.8-2.3C26.2,86.5,28.7,86.9,28.7,86.9Z"/>
      <path id="パス_228" data-name="パス 228" class="cls-9" d="M29.1,81.9a27.7,27.7,0,0,1-.5,5.4s-4.6-1.8-3.3,1.5c.9,2.4,3.8,3.1,3.1,4.8s-1.2.4-1.4-.4a10.072,10.072,0,0,0-2.6-3.7c-1.1-.9-.8-2.5.5-4.8A5.253,5.253,0,0,1,29.1,81.9Z"/>
      <path id="パス_229" data-name="パス 229" class="cls-10" d="M10.6,138.6h-.1a.752.752,0,0,1-.5-.7c1.4-6.1-1-22.3-1-22.5a.752.752,0,0,1,.5-.7c.3-.1.6.2.7.5.1.7,2.4,16.5,1,22.9A.56.56,0,0,1,10.6,138.6Z"/>
      <path id="パス_230" data-name="パス 230" class="cls-10" d="M59.3,138.8a.634.634,0,0,1-.6-.5c-1.8-10.7-.6-27.5-.6-27.7a.6.6,0,0,1,1.2,0c0,.2-1.3,16.9.6,27.4.1.3-.2.6-.5.7C59.4,138.8,59.4,138.8,59.3,138.8Z"/>
    </g>
  </g>
</svg>
