<svg xmlns="http://www.w3.org/2000/svg" xmlns:xlink="http://www.w3.org/1999/xlink" viewBox="5352 994 142 142">
  <defs>
    <style>
      .cls-1 {
        fill: #f7f7f7;
      }

      .cls-2 {
        clip-path: url(#clip-path);
      }

      .cls-3 {
        fill: #e3eeff;
      }

      .cls-4 {
        fill: #f8cfbd;
      }

      .cls-5 {
        fill: #fff;
      }

      .cls-6 {
        fill: #352207;
      }

      .cls-7 {
        fill: #382b28;
      }

      .cls-8 {
        fill: #231815;
      }
    </style>
    <clipPath id="clip-path">
      <circle id="楕円形_17" data-name="楕円形 17" class="cls-1" cx="71" cy="71" r="71" transform="translate(761 986)"/>
    </clipPath>
  </defs>
  <g id="マスクグループ_4" data-name="マスクグループ 4" class="cls-2" transform="translate(4591 8)">
    <circle id="楕円形_24" data-name="楕円形 24" class="cls-1" cx="71" cy="71" r="71" transform="translate(761 986)"/>
    <g id="グループ化_234" data-name="グループ化 234" transform="translate(797 1013.056)">
      <g id="グループ化_230" data-name="グループ化 230">
        <path id="パス_387" data-name="パス 387" class="cls-3" d="M60.3,93.6l-7.2-6.8S43.5,99.6,31.8,98.9s-6.1-10.4-6.1-10.4c-8.3-1.6-13.1,11.5-14.1,15.2-1,3.6-5.3,13.9-5.3,13.9L1.8,136.5h59C62.6,118.4,60.3,93.6,60.3,93.6Z"/>
      </g>
      <path id="パス_388" data-name="パス 388" class="cls-4" d="M26.5,69.6s1.1,3.1.8,9c-.1,2-3.5,3.7-4,5.1,0,0-1.1,25.3,30,1.2,0,0-10.6-5.2-11.5-7.5-1.5-3.7-1.7-4.3-1-9.5Z"/>
      <circle id="楕円形_47" data-name="楕円形 47" class="cls-5" cx="1.7" cy="1.7" r="1.7" transform="translate(17.844 130.437) rotate(-84.855)"/>
      <path id="パス_389" data-name="パス 389" class="cls-6" d="M10,48.7l51.9,2.8s5.5-21,5.6-25.1c.3-10.7-4.5-14.6-11-15.7,0,0-2.1-12.7-16.2-10.5,0,0-24.9-.7-37.4,15.1a44.023,44.023,0,0,1,8.5-1.5S4.2,17.5,1.5,30.1a16.028,16.028,0,0,1,4.3-3C5.8,27.2,5.2,43.3,10,48.7Z"/>
      <path id="パス_390" data-name="パス 390" class="cls-4" d="M13.8,45.6s-4.7-3-7.6,0-1.1,9.2,1.7,10,6.8-1.4,6.8-1.4Z"/>
      <path id="パス_391" data-name="パス 391" class="cls-4" d="M9.1,21.8c-1,7.4-.9,14.9-.8,22.4.1,11,5.4,23.2,12.7,28.2,6.1,4.1,12.3,2.5,17.8,1.5,6.8-1.2,16.8-8.3,20.1-20.2,1.7-5.9-.6-12.1-1.2-18.2,0,0-1.6-15.4-15.2-18.7S13.4,14.9,9.1,21.8Z"/>
      <path id="パス_392" data-name="パス 392" class="cls-4" d="M57.7,45.6s4.7-3,7.6,0,1.1,9.2-1.7,10-6.8-1.4-6.8-1.4Z"/>
      <path id="パス_393" data-name="パス 393" class="cls-6" d="M60.9,43.2C65.4,21.1,42,10.6,34.5,10.6S11.3,14.4,8.1,19.8s.2,24.5.2,24.5C9.6,33.2,20.5,24.2,20.5,24.2c-5.7,7.3-4,12.4-4,12.4,10-12.7,28.6-17,28.6-17S58,40,55.2,51.1A13.179,13.179,0,0,0,60.9,43.2Z"/>
      <path id="パス_394" data-name="パス 394" class="cls-7" d="M60.8,42.2h-.1c-.4-.1-.7-.4-.6-.8,3.6-22.5-5.2-25.5-5.3-25.5a.728.728,0,1,1,.4-1.4c.4.1,10.2,3.2,6.3,27.1A.858.858,0,0,1,60.8,42.2Z"/>
      <path id="パス_395" data-name="パス 395" class="cls-7" d="M15,19.2a.713.713,0,0,1-.6-.3.769.769,0,0,1,.1-1C24.5,8.6,33.4,4.1,41.1,4.4c5.8.2,8.6,3.3,8.7,3.4a.707.707,0,1,1-1,1c-.1-.1-2.6-2.7-7.8-2.9-4.4-.2-11.6,1.5-21.6,9.7,6.1-2.6,17-6.4,24.8-4.3a.728.728,0,1,1-.4,1.4c-10.6-3-28.2,6.3-28.4,6.4C15.3,19.2,15.2,19.2,15,19.2Z"/>
      <g id="グループ化_231" data-name="グループ化 231">
        <path id="パス_396" data-name="パス 396" class="cls-3" d="M44.3,80c-1.8,2.7-11,13.3-13.3,13.2-1.7-.1-4.9-7.7-6.4-11.1L20,84.6c-.1,1.1-.2,25.7,0,27.5l32.3,2.1c2.6-1.7,4.7-23.3,5.8-24.1Z"/>
        <path id="パス_397" data-name="パス 397" class="cls-3" d="M59.1,89.5l-16-5.8a8,8,0,0,1-2.2,5.5l17.4,1A2.708,2.708,0,0,1,59.1,89.5Z"/>
      </g>
      <g id="グループ化_232" data-name="グループ化 232">
        <path id="パス_398" data-name="パス 398" d="M22.2,127.4c.6-7.5.5-21.7,1.1-29.7s1.1-15.5,1.1-15.5-7.2,4.5-9.6,5.3S10.7,89,9.3,89.3c0,0-3.5,2.9-4.7,14.7S.7,133.2.1,136.1a.756.756,0,0,1-.1.4H21.3C21.7,133.3,22,130,22.2,127.4Z"/>
      </g>
      <path id="パス_399" data-name="パス 399" class="cls-8" d="M10,136.5H9.9a.752.752,0,0,1-.5-.7c1.4-6.1-1-22.3-1-22.5a.752.752,0,0,1,.5-.7c.3-.1.6.2.7.5.1.7,2.4,16.5,1,22.9A.56.56,0,0,1,10,136.5Z"/>
      <g id="グループ化_233" data-name="グループ化 233">
        <path id="パス_400" data-name="パス 400" d="M69.3,130.7c-.7-6.6-1.9-34.1-2.3-37-.4-3-1.7-5.1-3.4-5.7S55,85.3,51.9,84a59.041,59.041,0,0,1-7.7-4.4s-7.2,32.2-8.5,39.3A75.567,75.567,0,0,0,34.5,134c0,.5.1,1.4.2,2.5H69.8C69.6,134.3,69.5,132.3,69.3,130.7Z"/>
      </g>
      <path id="パス_401" data-name="パス 401" class="cls-8" d="M58.7,136.8a.634.634,0,0,1-.6-.5c-1.8-10.7-.6-27.5-.6-27.7a.6.6,0,1,1,1.2,0c0,.2-1.3,16.9.6,27.4.1.3-.2.6-.5.7C58.8,136.8,58.8,136.8,58.7,136.8Z"/>
      <path id="パス_402" data-name="パス 402" class="cls-8" d="M35.3,127.5h-.1a.752.752,0,0,1-.5-.7c.3-1.9,1.7-4.5,3.7-8.4.9-1.8,1.9-3.8,3.1-6.1,3.2-6.6,8.4-18.7,9.5-21.3l-3.6-2.3a.567.567,0,0,1,0-1l3.1-1.6L50,84.7a.632.632,0,1,1,1.2-.4l.6,1.9a.517.517,0,0,1-.3.7l-2.6,1.3,3.1,2a.663.663,0,0,1,.2.7c-.1.1-6.1,14.4-9.7,21.8-1.1,2.3-2.2,4.4-3.1,6.1-2,3.8-3.3,6.4-3.6,8.1C35.8,127.3,35.6,127.5,35.3,127.5Z"/>
      <path id="パス_403" data-name="パス 403" class="cls-8" d="M21.3,126.3a.675.675,0,0,1-.6-.4c-4.9-15.7-5.4-32.9-5.4-33.1a.864.864,0,0,1,.3-.6l3.2-1.6-1.3-1.7a.44.44,0,0,1-.1-.5c0-.2.1-.3.3-.4l4.8-3.2a.583.583,0,1,1,.6,1l-4.2,2.8,1.4,1.7a.44.44,0,0,1,.1.5c0,.2-.2.3-.3.4L16.6,93c.1,2.6.9,18.2,5.3,32.4a.68.68,0,0,1-.4.8C21.4,126.3,21.4,126.3,21.3,126.3Z"/>
    </g>
  </g>
</svg>
