<svg xmlns="http://www.w3.org/2000/svg" xmlns:xlink="http://www.w3.org/1999/xlink" viewBox="5610 994 142 142">
  <defs>
    <style>
      .cls-1 {
        fill: #f7f7f7;
      }

      .cls-2 {
        clip-path: url(#clip-path);
      }

      .cls-3 {
        fill: #be6125;
      }

      .cls-4 {
        fill: #f8cfbd;
      }

      .cls-5 {
        fill: none;
      }

      .cls-6 {
        fill: #f7b52c;
      }

      .cls-7 {
        fill: #964214;
      }

      .cls-8 {
        fill: #f4d347;
      }
    </style>
    <clipPath id="clip-path">
      <circle id="楕円形_17" data-name="楕円形 17" class="cls-1" cx="71" cy="71" r="71" transform="translate(1019 986)"/>
    </clipPath>
  </defs>
  <g id="マスクグループ_2" data-name="マスクグループ 2" class="cls-2" transform="translate(4591 8)">
    <circle id="楕円形_20" data-name="楕円形 20" class="cls-1" cx="71" cy="71" r="71" transform="translate(1019 986)"/>
    <g id="グループ化_127" data-name="グループ化 127" transform="translate(1050 1020.96)">
      <path id="パス_159" data-name="パス 159" class="cls-3" d="M37.1,1.8S71.7-9.4,79,24.7,59.8,69,69,75.7c0,0-25.4,9.8-51.1-3,0,0,4.8-1.6,1.6-7.1C16.3,60-9.7,6.8,37.1,1.8Z"/>
      <path id="パス_160" data-name="パス 160" class="cls-4" d="M27,60.4s1,3.1.4,9c-.2,2-2.1,3.5-4.5,4.7,0,0-2.2,25.4,30.2,3,0,0-10.3-5.8-11.1-8-1.3-3.8-1.4-4.4-.5-9.5Z"/>
      <g id="グループ化_125" data-name="グループ化 125">
        <path id="パス_161" data-name="パス 161" class="cls-5" d="M33.2,79.6a14.79,14.79,0,0,0,8.1-2.1L27,76.6C28,78.1,29.8,79.4,33.2,79.6Z"/>
        <path id="パス_162" data-name="パス 162" class="cls-6" d="M56.6,78.5a6.408,6.408,0,0,0,.9-.7"/>
      </g>
      <path id="パス_163" data-name="パス 163" class="cls-4" d="M64.4,36.5s5.1-2.1,7.3,1.3c2.3,3.4-.6,9.1-3.4,9.4S62,44.6,62,44.6Z"/>
      <path id="パス_164" data-name="パス 164" class="cls-4" d="M18.6,13.1c-4.1,1.5-10,12.2-10.5,15.8-.7,4.8-.5,14.5,3,22.1C20.9,71.9,47,64.9,62.6,46.3c7.6-9,3.3-17.3-2.6-24.5C54,14.7,40.3,7.5,30.5,8.1,20.6,8.7,18.6,13.1,18.6,13.1Z"/>
      <path id="パス_165" data-name="パス 165" class="cls-3" d="M59.2,13C52.8,3.6,33.8-3.3,19.9,3.4,6,10.2,2.5,29.2,2.5,29.2c35,4.5,45.9-12.1,45.9-12.1,3,19.4,18.1,20.4,18.1,20.4C67,30.8,65.7,22.3,59.2,13Z"/>
      <path id="パス_166" data-name="パス 166" class="cls-7" d="M6.5,27.6c-1,0-2,0-3.1-.1a.645.645,0,0,1-.6-.6.56.56,0,0,1,.5-.6c.1,0,9.2-1.5,22.5-16.8a.633.633,0,0,1,.9-.1.529.529,0,0,1,.1.8C17.9,20.5,10.9,24.7,7,26.4,29.5,26.2,37,11,37.1,10.8a.6.6,0,1,1,1.1.5C38.1,11.5,30.2,27.6,6.5,27.6Z"/>
      <path id="パス_167" data-name="パス 167" class="cls-7" d="M66.4,37.2a.367.367,0,0,1-.3-.1C56.1,32.2,54.3,18.6,54.3,18a.608.608,0,1,1,1.2-.2c0,.1,1.8,13.5,11.2,18.1a.63.63,0,0,1,.3.8C66.8,37.1,66.6,37.2,66.4,37.2Z"/>
      <path id="パス_168" data-name="パス 168" class="cls-7" d="M63.2,66.8a2.8,2.8,0,0,1-2.6-1.2c-.9-1.8,1-5,5.6-9.7,7.7-7.9,10-16.3,7.4-26.5C70.5,16.6,59.1,5.1,45.5,7.8c-.3.1-.6-.1-.7-.5-.1-.3.1-.6.5-.7C59.5,3.7,71.5,15.7,74.9,29c2.7,10.5.1,19.6-7.7,27.7-5.7,5.9-5.7,7.8-5.4,8.4s1.4.6,1.8.6a.608.608,0,1,1,.2,1.2A1.268,1.268,0,0,0,63.2,66.8Z"/>
      <path id="パス_169" data-name="パス 169" class="cls-8" d="M57.5,77.8s4.8,5.2,6.9,17.4S67.3,136,67.3,136s-8.8.1-16.8-.3L49.8,101Z"/>
      <g id="グループ化_126" data-name="グループ化 126">
        <path id="パス_170" data-name="パス 170" class="cls-8" d="M57.5,77.8,47.1,73.4a16.1,16.1,0,0,1-15.7,8.9c-6.7-.3-8.3-8.5-8.3-8.5C17,74.7,9.8,84.4,8.7,88,4.5,101.7,0,135.8,0,135.8H51C52.7,117.6,57.5,77.8,57.5,77.8Z"/>
      </g>
    </g>
  </g>
</svg>
