<svg xmlns="http://www.w3.org/2000/svg" xmlns:xlink="http://www.w3.org/1999/xlink" viewBox="9170 994 142 142">
  <defs>
    <style>
      .cls-1 {
        fill: #f7f7f7;
      }

      .cls-2 {
        clip-path: url(#clip-path);
      }

      .cls-3 {
        fill: #f8cfbd;
      }

      .cls-4 {
        fill: #f2f2f2;
      }

      .cls-5 {
        fill: #fff;
      }

      .cls-6 {
        fill: #231815;
      }

      .cls-7 {
        fill: #a69d8d;
      }

      .cls-8 {
        fill: #7f7566;
      }

      .cls-9 {
        fill: none;
        stroke: #191919;
        stroke-miterlimit: 10;
      }

      .cls-10 {
        fill: #c1182c;
      }

      .cls-11 {
        clip-path: url(#clip-path-2);
      }

      .cls-12 {
        fill: #353142;
      }
    </style>
    <clipPath id="clip-path">
      <circle id="楕円形_88" data-name="楕円形 88" class="cls-1" cx="71" cy="71" r="71" transform="translate(499 986)"/>
    </clipPath>
    <clipPath id="clip-path-2">
      <path id="パス_694" data-name="パス 694" d="M15.591,27.451C19.112,18.5,19.716,14.676,26.053,8.238A41.59,41.59,0,0,1,43.556,1.8C50.6.694,69.709,10.25,71.821,13.871,75.543,20.51,77.857,35,77.052,37.108c-1.106,2.615-12.674,4.024-14.686,3.018C59.449,42.338,51.8,46.161,49.39,46.664s-11.065,2.213-18.71-.6c-7.343-2.716-11.367-8.047-15.994-8.852-3.118-.6-7.142-.1-11.769,1.308-3.822.4-3.822-2.314-.3-4.325C6.136,31.877,12.171,29.664,15.591,27.451Z" transform="translate(-0.011 -1.712)"/>
    </clipPath>
  </defs>
  <g id="マスクグループ_24" data-name="マスクグループ 24" class="cls-2" transform="translate(8671 8)">
    <circle id="楕円形_86" data-name="楕円形 86" class="cls-1" cx="71" cy="71" r="71" transform="translate(499 986)"/>
    <g id="グループ化_399" data-name="グループ化 399" transform="translate(525.239 1007.033)">
      <path id="パス_676" data-name="パス 676" class="cls-3" d="M36.9,77.009s2.414,11.668-.4,17.6c0,0,0,15.692,3.521,16.9,2.615.905,7.947-11.668,13.278-15.994,0,0-3.822-10.461-2.515-20.017Z" transform="translate(0.204 -1.276)"/>
      <g id="グループ化_391" data-name="グループ化 391" transform="translate(29.462 90.016)">
        <path id="パス_677" data-name="パス 677" class="cls-4" d="M39.661,140.489c.3-3.923,1.106-15.692,1.207-19.313s-3.319-19.615-3.319-19.615,2.213-3.722,1.609-4.024c-1.106-.5-1.911-4.024-1.811-4.728.1-.4-2.817-1.609-2.817-1.609s-2.716,3.018-2.615,5.331-1.207,30.076-1.207,34.2c0,1.911-.7,7.846-1.408,13.68H39.359Q39.51,141.847,39.661,140.489Z" transform="translate(-29.3 -91.2)"/>
      </g>
      <g id="グループ化_392" data-name="グループ化 392" transform="translate(37.308 89.01)">
        <path id="パス_678" data-name="パス 678" class="cls-4" d="M49.774,120.377C50.981,112.33,55.709,90.2,55.709,90.2l-8.248,1.308a9.677,9.677,0,0,0-2.213,1.911c-.5.905-.8,3.621-1.207,4.325-.5.7.7,3.722-.2,5.331-.8,1.509-6.136,8.953-6.136,16.4-.1,7.444-.6,19.917-.6,23.94v.8H49.07C48.97,135.264,49.171,124.7,49.774,120.377Z" transform="translate(-37.1 -90.2)"/>
      </g>
      <circle id="楕円形_87" data-name="楕円形 87" class="cls-5" cx="1.71" cy="1.71" r="1.71" transform="translate(27.304 136.854) rotate(-84.855)"/>
      <path id="パス_679" data-name="パス 679" class="cls-6" d="M19.309,144.041h-.1a.756.756,0,0,1-.5-.7C20.114,137.2,17.7,120.905,17.7,120.7a.756.756,0,0,1,.5-.7c.3-.1.6.2.7.5.1.7,2.414,16.6,1.006,23.035A.563.563,0,0,1,19.309,144.041Z" transform="translate(0.093 -1.014)"/>
      <path id="パス_680" data-name="パス 680" class="cls-6" d="M68.009,144.37a.638.638,0,0,1-.6-.5C65.6,133.1,66.8,116.2,66.8,116a.6.6,0,1,1,1.207,0c0,.2-1.308,17,.6,27.562.1.3-.2.6-.5.7C68.11,144.37,68.11,144.37,68.009,144.37Z" transform="translate(0.381 -1.041)"/>
      <path id="パス_681" data-name="パス 681" class="cls-7" d="M20.733,58.489s-10.059-9.254-3.319-35.911C20.13,11.413,31.195,9.1,50.81,9.2s17.905,8.852,17.905,8.852c6.538.905,8.148,9.657,8.148,17.1,0,4.225-3.822,25.248-3.822,25.248Z" transform="translate(0.078 -1.668)"/>
      <path id="パス_682" data-name="パス 682" class="cls-3" d="M19.3,31.342c-.905,7.544-.6,15.089-.4,22.633C19.2,65.04,20.812,77.111,32.28,82.14c4.527,1.911,12.171,1.308,17,1.609,6.941.4,17.7-9.154,20.822-21.225,1.509-6.035-.905-12.171-1.609-18.307,0,0-2.012-15.491-15.692-18.609S23.428,24.3,19.3,31.342Z" transform="translate(0.099 -1.58)"/>
      <path id="パス_683" data-name="パス 683" class="cls-3" d="M68.4,54.108s4.627-3.118,7.645-.2,1.308,9.254-1.509,10.16-6.84-1.308-6.84-1.308Z" transform="translate(0.388 -1.411)"/>
      <path id="パス_684" data-name="パス 684" class="cls-7" d="M70.011,57.953,67.4,46.788c-6.035-2.716-8.852-16.9-8.852-16.9-13.68,8.55-35.408.8-35.408.8A84.283,84.283,0,0,0,18.71,54.734s-5.532-24.343,3.118-30.479S52.81,9.972,64.781,18.522C64.68,18.522,80.473,21.036,70.011,57.953Z" transform="translate(0.089 -1.635)"/>
      <path id="パス_685" data-name="パス 685" class="cls-8" d="M44.54,31.09h0A29.908,29.908,0,0,1,22.712,18.918c-.7,2.213-1.408,6.74,2.515,10.059a.715.715,0,0,1-.905,1.106c-6.237-5.13-2.515-13.077-2.414-13.177a.827.827,0,0,1,.6-.4.759.759,0,0,1,.7.4,28.426,28.426,0,0,0,17.5,12.071,24.385,24.385,0,0,1-9.455-12.272.732.732,0,0,1,1.408-.4A23.254,23.254,0,0,0,44.942,29.682a.684.684,0,0,1,.4.8A.943.943,0,0,1,44.54,31.09Z" transform="translate(0.111 -1.629)"/>
      <path id="パス_686" data-name="パス 686" class="cls-8" d="M72.131,51.66h0c-.5-.1-.8-.4-.7-.8C73.941,28.725,67.4,25.808,67.4,25.808a.7.7,0,1,1,.5-1.308c.3.1,7.745,3.018,5.03,26.656A.959.959,0,0,1,72.131,51.66Z" transform="translate(0.384 -1.578)"/>
      <g id="グループ化_395" data-name="グループ化 395" transform="translate(0 0)">
        <path id="パス_687" data-name="パス 687" d="M15.591,27.451C19.112,18.5,19.716,14.676,26.053,8.238A41.59,41.59,0,0,1,43.556,1.8C50.6.694,69.709,10.25,71.821,13.871,75.543,20.51,77.857,35,77.052,37.108c-1.106,2.615-12.674,4.024-14.686,3.018C59.449,42.338,51.8,46.161,49.39,46.664s-11.065,2.213-18.71-.6c-7.343-2.716-11.367-8.047-15.994-8.852-3.118-.6-7.142-.1-11.769,1.308-3.822.4-3.822-2.314-.3-4.325C6.136,31.877,12.171,29.664,15.591,27.451Z" transform="translate(-0.011 -1.712)"/>
        <path id="パス_688" data-name="パス 688" class="cls-9" d="M17.7,27.1c7.846-2.012,30.479,3.621,41.745,11.266" transform="translate(0.093 -1.564)"/>
        <path id="パス_689" data-name="パス 689" class="cls-10" d="M68.508,11.1C59.858,12.911,49.094,24.378,50.1,24.78c.2.1.5-.4,1.609-1.308,1.509-1.207,11.97-5.331,20.722-7.745C71.124,12.005,68.508,11.1,68.508,11.1Z" transform="translate(0.284 -1.657)"/>
        <path id="パス_690" data-name="パス 690" class="cls-5" d="M72.138,15.1c-12.876.8-30.177,15.39-20.722,10.763a50.3,50.3,0,0,1,22.834-5.13A18.79,18.79,0,0,0,72.138,15.1Z" transform="translate(0.276 -1.633)"/>
        <path id="パス_691" data-name="パス 691" class="cls-9" d="M29.9,25.838C30.4,13.466,33.219,5.519,44.687,2.3" transform="translate(0.165 -1.708)"/>
        <g id="グループ化_394" data-name="グループ化 394">
          <g id="グループ化_393" data-name="グループ化 393" class="cls-11">
            <path id="パス_692" data-name="パス 692" class="cls-10" d="M10.032,0C17.275,5.03,22.707,19.816,21.6,19.816c-.2,0-.3-.6-1.006-1.811C19.689,16.3,11.642,8.349,4.5,2.817,7.317-.2,10.032,0,10.032,0Z" transform="translate(0.015 -1.722)"/>
            <path id="パス_693" data-name="パス 693" class="cls-5" d="M5.124,2.2C16.692,8.034,26.952,28.253,20.012,20.306A49.612,49.612,0,0,0,1,6.626,21.846,21.846,0,0,1,5.124,2.2Z" transform="translate(-0.006 -1.709)"/>
          </g>
        </g>
      </g>
      <g id="グループ化_396" data-name="グループ化 396" transform="translate(32.299 87.099)">
        <path id="パス_695" data-name="パス 695" class="cls-10" d="M38.336,128.938c-.2,0-.8-4.929-.905-5.13-.5-1.71-6.035-18.609-5.231-26.254l1.911,2.213c.5,7.947,4.024,21.426,4.527,22.935a8.16,8.16,0,0,0,.6-.8c5.13-7.645,14.586-23.84,17-33.6l2.314,1.408c.6,5.03-11.87,26.958-18.509,33.8C39.342,124.211,39.946,128.938,38.336,128.938Z" transform="translate(-32.121 -88.3)"/>
        <path id="パス_696" data-name="パス 696" class="cls-10" d="M34.5,127.2l9.254-.4.2,15.491-9.254.3Z" transform="translate(-32.107 -88.073)"/>
        <path id="パス_697" data-name="パス 697" class="cls-5" d="M34.5,127.1l9.254-.3-4.627,3.219Z" transform="translate(-32.107 -88.073)"/>
      </g>
      <g id="グループ化_397" data-name="グループ化 397" transform="translate(45.024 85.892)">
        <path id="パス_698" data-name="パス 698" class="cls-12" d="M79.806,138.5c-.7-6.639-1.911-34.3-2.314-37.218-.4-3.018-1.71-5.13-3.42-5.734s-8.55-2.917-11.769-4.024A42.619,42.619,0,0,1,54.356,87.1s-7.142,32.39-8.349,39.532A76.013,76.013,0,0,0,44.8,141.821c0,.5.1,1.408.2,2.515H80.309C80.107,142.022,80.007,140.01,79.806,138.5Z" transform="translate(-44.771 -87.1)"/>
      </g>
      <path id="パス_699" data-name="パス 699" class="cls-6" d="M45.6,135.158h-.1a.756.756,0,0,1-.5-.7c.3-1.911,1.71-4.527,3.722-8.45.905-1.811,1.911-3.822,3.118-6.136,3.219-6.639,8.45-18.81,9.556-21.426l-3.621-2.414a.57.57,0,0,1,0-1.006l3.118-1.609L60.491,92a.636.636,0,1,1,1.207-.4l.6,1.911a.52.52,0,0,1-.3.7l-2.615,1.308L62.5,97.537a.667.667,0,0,1,.2.7c-.1.1-6.136,14.485-9.757,21.929-1.106,2.314-2.213,4.426-3.118,6.136-2.012,3.822-3.319,6.438-3.621,8.148C46.207,134.957,45.905,135.158,45.6,135.158Z" transform="translate(0.254 -1.184)"/>
      <path id="パス_700" data-name="パス 700" class="cls-5" d="M51.23,86.1a42.139,42.139,0,0,1-5.13,6.237s1.308-1.609,3.018,1.106c.8,1.207,4.426,7.444,4.426,7.444l4.124-11.065C57.567,89.822,55.857,85.7,51.23,86.1Z" transform="translate(0.261 -1.214)"/>
      <g id="グループ化_398" data-name="グループ化 398" transform="translate(9.343 89.312)">
        <path id="パス_701" data-name="パス 701" class="cls-12" d="M31.631,135.062c.6-7.544.5-21.828,1.106-29.875s.905-14.686.905-14.686-7.142,4.728-9.455,5.432c-2.414.8-4.124,1.509-5.532,1.811,0,0-3.521,1.911-4.728,13.781S10,140.9,9.4,143.813a.76.76,0,0,1-.1.4H30.726C31.128,141,31.43,137.677,31.631,135.062Z" transform="translate(-9.3 -90.5)"/>
      </g>
      <path id="パス_702" data-name="パス 702" class="cls-6" d="M30.635,133.946a.679.679,0,0,1-.6-.4c-4.929-15.793-5.432-33.094-5.432-33.3a.869.869,0,0,1,.3-.6l3.219-1.609-1.308-1.71a.442.442,0,0,1-.1-.5c0-.2.1-.3.3-.4L31.842,92.2a.587.587,0,1,1,.6,1.006l-4.225,2.817,1.408,1.71a.442.442,0,0,1,.1.5c0,.2-.2.3-.3.4l-3.521,1.811c.1,2.615.905,18.307,5.331,32.591a.684.684,0,0,1-.4.8C30.736,133.946,30.736,133.946,30.635,133.946Z" transform="translate(0.134 -1.178)"/>
      <path id="パス_703" data-name="パス 703" class="cls-5" d="M37.847,87.3a32.181,32.181,0,0,1-.6,6.337s-1.006-4.024-3.722.3A21.3,21.3,0,0,0,29.9,99.27c1.006-6.438.4-4.426,1.308-7.444C32.515,87.8,35.734,87.5,37.847,87.3Z" transform="translate(0.165 -1.207)"/>
    </g>
  </g>
</svg>
